  0
SECTION
  2
BLOCKS
  0
ENDSEC
  0
SECTION
  2
ENTITIES
  0
LINE
  8
0
 10
-22.5
 11
-22.5
 20
-58
 21
-43.5
  0
LINE
  8
0
 10
-22.5
 11
-19.5
 20
-43.5
 21
-43.5
  0
LINE
  8
0
 10
-19.5
 11
-19.5
 20
-43.5
 21
-33.5
  0
LINE
  8
0
 10
-19.5
 11
-22.5
 20
-33.5
 21
-33.5
  0
LINE
  8
0
 10
-22.5
 11
-22.5
 20
-33.5
 21
-19
  0
LINE
  8
0
 10
-22.5
 11
-5
 20
-19
 21
-19
  0
LINE
  8
0
 10
-5
 11
-5
 20
-19
 21
-16
  0
LINE
  8
0
 10
-5
 11
5
 20
-16
 21
-16
  0
LINE
  8
0
 10
5
 11
5
 20
-16
 21
-19
  0
LINE
  8
0
 10
5
 11
22.5
 20
-19
 21
-19
  0
LINE
  8
0
 10
22.5
 11
22.5
 20
-19
 21
-33.5
  0
LINE
  8
0
 10
22.5
 11
19.5
 20
-33.5
 21
-33.5
  0
LINE
  8
0
 10
19.5
 11
19.5
 20
-33.5
 21
-43.5
  0
LINE
  8
0
 10
19.5
 11
22.5
 20
-43.5
 21
-43.5
  0
LINE
  8
0
 10
22.5
 11
22.5
 20
-43.5
 21
-58
  0
LINE
  8
0
 10
22.5
 11
5
 20
-58
 21
-58
  0
LINE
  8
0
 10
5
 11
5
 20
-58
 21
-61
  0
LINE
  8
0
 10
5
 11
-5
 20
-61
 21
-61
  0
LINE
  8
0
 10
-5
 11
-5
 20
-61
 21
-58
  0
LINE
  8
0
 10
-5
 11
-22.5
 20
-58
 21
-58
  0
LINE
  8
0
 10
-22.5
 11
-22.5
 20
-15
 21
-7.5
  0
LINE
  8
0
 10
-22.5
 11
-19.5
 20
-7.5
 21
-7.5
  0
LINE
  8
0
 10
-19.5
 11
-19.5
 20
-7.5
 21
-2.5
  0
LINE
  8
0
 10
-19.5
 11
-22.5
 20
-2.5
 21
-2.5
  0
LINE
  8
0
 10
-22.5
 11
-22.5
 20
-2.5
 21
2.5
  0
LINE
  8
0
 10
-22.5
 11
-19.5
 20
2.5
 21
2.5
  0
LINE
  8
0
 10
-19.5
 11
-19.5
 20
2.5
 21
7.5
  0
LINE
  8
0
 10
-19.5
 11
-22.5
 20
7.5
 21
7.5
  0
LINE
  8
0
 10
-22.5
 11
-22.5
 20
7.5
 21
15
  0
LINE
  8
0
 10
-22.5
 11
-5
 20
15
 21
15
  0
LINE
  8
0
 10
-5
 11
-5
 20
15
 21
12
  0
LINE
  8
0
 10
-5
 11
5
 20
12
 21
12
  0
LINE
  8
0
 10
5
 11
5
 20
12
 21
15
  0
LINE
  8
0
 10
5
 11
22.5
 20
15
 21
15
  0
LINE
  8
0
 10
22.5
 11
22.5
 20
15
 21
7.5
  0
LINE
  8
0
 10
22.5
 11
19.5
 20
7.5
 21
7.5
  0
LINE
  8
0
 10
19.5
 11
19.5
 20
7.5
 21
2.5
  0
LINE
  8
0
 10
19.5
 11
22.5
 20
2.5
 21
2.5
  0
LINE
  8
0
 10
22.5
 11
22.5
 20
2.5
 21
-2.5
  0
LINE
  8
0
 10
22.5
 11
19.5
 20
-2.5
 21
-2.5
  0
LINE
  8
0
 10
19.5
 11
19.5
 20
-2.5
 21
-7.5
  0
LINE
  8
0
 10
19.5
 11
22.5
 20
-7.5
 21
-7.5
  0
LINE
  8
0
 10
22.5
 11
22.5
 20
-7.5
 21
-15
  0
LINE
  8
0
 10
22.5
 11
17.5
 20
-15
 21
-15
  0
LINE
  8
0
 10
17.5
 11
17.5
 20
-15
 21
-12
  0
LINE
  8
0
 10
17.5
 11
12.5
 20
-12
 21
-12
  0
LINE
  8
0
 10
12.5
 11
12.5
 20
-12
 21
-15
  0
LINE
  8
0
 10
12.5
 11
7.5
 20
-15
 21
-15
  0
LINE
  8
0
 10
7.5
 11
7.5
 20
-15
 21
-12
  0
LINE
  8
0
 10
7.5
 11
2.5
 20
-12
 21
-12
  0
LINE
  8
0
 10
2.5
 11
2.5
 20
-12
 21
-15
  0
LINE
  8
0
 10
2.5
 11
-2.5
 20
-15
 21
-15
  0
LINE
  8
0
 10
-2.5
 11
-2.5
 20
-15
 21
-12
  0
LINE
  8
0
 10
-2.5
 11
-7.5
 20
-12
 21
-12
  0
LINE
  8
0
 10
-7.5
 11
-7.5
 20
-12
 21
-15
  0
LINE
  8
0
 10
-7.5
 11
-12.5
 20
-15
 21
-15
  0
LINE
  8
0
 10
-12.5
 11
-12.5
 20
-15
 21
-12
  0
LINE
  8
0
 10
-12.5
 11
-17.5
 20
-12
 21
-12
  0
LINE
  8
0
 10
-17.5
 11
-17.5
 20
-12
 21
-15
  0
LINE
  8
0
 10
-17.5
 11
-22.5
 20
-15
 21
-15
  0
LINE
  8
0
 10
-19.44
 11
-19.44
 20
-53
 21
-48
  0
LINE
  8
0
 10
-19.44
 11
-16.44
 20
-48
 21
-48
  0
LINE
  8
0
 10
-16.44
 11
-16.44
 20
-48
 21
-53
  0
LINE
  8
0
 10
-16.44
 11
-19.44
 20
-53
 21
-53
  0
LINE
  8
0
 10
-19.44
 11
-19.44
 20
-29
 21
-24
  0
LINE
  8
0
 10
-19.44
 11
-16.44
 20
-24
 21
-24
  0
LINE
  8
0
 10
-16.44
 11
-16.44
 20
-24
 21
-29
  0
LINE
  8
0
 10
-16.44
 11
-19.44
 20
-29
 21
-29
  0
LINE
  8
0
 10
-4.677
 11
-4.677
 20
17.646
 21
25
  0
LINE
  8
0
 10
-4.677
 11
-4.662
 20
25
 21
25.174
  0
LINE
  8
0
 10
-4.662
 11
-4.617
 20
25.174
 21
25.342
  0
LINE
  8
0
 10
-4.617
 11
-4.543
 20
25.342
 21
25.5
  0
LINE
  8
0
 10
-4.543
 11
-4.443
 20
25.5
 21
25.643
  0
LINE
  8
0
 10
-4.443
 11
-4.32
 20
25.643
 21
25.766
  0
LINE
  8
0
 10
-4.32
 11
-4.177
 20
25.766
 21
25.866
  0
LINE
  8
0
 10
-4.177
 11
-4.019
 20
25.866
 21
25.94
  0
LINE
  8
0
 10
-4.019
 11
-3.851
 20
25.94
 21
25.985
  0
LINE
  8
0
 10
-3.851
 11
-3.677
 20
25.985
 21
26
  0
LINE
  8
0
 10
-3.677
 11
-2.5
 20
26
 21
26
  0
LINE
  8
0
 10
-2.5
 11
-2.5
 20
26
 21
29
  0
LINE
  8
0
 10
-2.5
 11
2.5
 20
29
 21
29
  0
LINE
  8
0
 10
2.5
 11
2.5
 20
29
 21
26
  0
LINE
  8
0
 10
2.5
 11
3.677
 20
26
 21
26
  0
LINE
  8
0
 10
3.677
 11
3.851
 20
26
 21
25.985
  0
LINE
  8
0
 10
3.851
 11
4.019
 20
25.985
 21
25.94
  0
LINE
  8
0
 10
4.019
 11
4.177
 20
25.94
 21
25.866
  0
LINE
  8
0
 10
4.177
 11
4.32
 20
25.866
 21
25.766
  0
LINE
  8
0
 10
4.32
 11
4.443
 20
25.766
 21
25.643
  0
LINE
  8
0
 10
4.443
 11
4.543
 20
25.643
 21
25.5
  0
LINE
  8
0
 10
4.543
 11
4.617
 20
25.5
 21
25.342
  0
LINE
  8
0
 10
4.617
 11
4.662
 20
25.342
 21
25.174
  0
LINE
  8
0
 10
4.662
 11
4.677
 20
25.174
 21
25
  0
LINE
  8
0
 10
4.677
 11
4.677
 20
25
 21
17.646
  0
LINE
  8
0
 10
4.677
 11
4.662
 20
17.646
 21
17.472
  0
LINE
  8
0
 10
4.662
 11
4.617
 20
17.472
 21
17.304
  0
LINE
  8
0
 10
4.617
 11
4.543
 20
17.304
 21
17.146
  0
LINE
  8
0
 10
4.543
 11
4.443
 20
17.146
 21
17.003
  0
LINE
  8
0
 10
4.443
 11
4.32
 20
17.003
 21
16.88
  0
LINE
  8
0
 10
4.32
 11
4.177
 20
16.88
 21
16.78
  0
LINE
  8
0
 10
4.177
 11
4.019
 20
16.78
 21
16.706
  0
LINE
  8
0
 10
4.019
 11
3.851
 20
16.706
 21
16.661
  0
LINE
  8
0
 10
3.851
 11
3.677
 20
16.661
 21
16.646
  0
LINE
  8
0
 10
3.677
 11
-3.677
 20
16.646
 21
16.646
  0
LINE
  8
0
 10
-3.677
 11
-3.851
 20
16.646
 21
16.661
  0
LINE
  8
0
 10
-3.851
 11
-4.019
 20
16.661
 21
16.706
  0
LINE
  8
0
 10
-4.019
 11
-4.177
 20
16.706
 21
16.78
  0
LINE
  8
0
 10
-4.177
 11
-4.32
 20
16.78
 21
16.88
  0
LINE
  8
0
 10
-4.32
 11
-4.443
 20
16.88
 21
17.003
  0
LINE
  8
0
 10
-4.443
 11
-4.543
 20
17.003
 21
17.146
  0
LINE
  8
0
 10
-4.543
 11
-4.617
 20
17.146
 21
17.304
  0
LINE
  8
0
 10
-4.617
 11
-4.662
 20
17.304
 21
17.472
  0
LINE
  8
0
 10
-4.662
 11
-4.677
 20
17.472
 21
17.646
  0
LINE
  8
0
 10
-3.118
 11
-1.559
 20
21.323
 21
24.023
  0
LINE
  8
0
 10
-1.559
 11
1.559
 20
24.023
 21
24.023
  0
LINE
  8
0
 10
1.559
 11
3.118
 20
24.023
 21
21.323
  0
LINE
  8
0
 10
3.118
 11
1.559
 20
21.323
 21
18.623
  0
LINE
  8
0
 10
1.559
 11
-1.559
 20
18.623
 21
18.623
  0
LINE
  8
0
 10
-1.559
 11
-3.118
 20
18.623
 21
21.323
  0
LINE
  8
0
 10
-0.5
 11
-0.492
 20
-38.5
 21
-38.413
  0
LINE
  8
0
 10
-0.492
 11
-0.47
 20
-38.413
 21
-38.329
  0
LINE
  8
0
 10
-0.47
 11
-0.433
 20
-38.329
 21
-38.25
  0
LINE
  8
0
 10
-0.433
 11
-0.383
 20
-38.25
 21
-38.179
  0
LINE
  8
0
 10
-0.383
 11
-0.321
 20
-38.179
 21
-38.117
  0
LINE
  8
0
 10
-0.321
 11
-0.25
 20
-38.117
 21
-38.067
  0
LINE
  8
0
 10
-0.25
 11
-0.171
 20
-38.067
 21
-38.03
  0
LINE
  8
0
 10
-0.171
 11
-0.087
 20
-38.03
 21
-38.008
  0
LINE
  8
0
 10
-0.087
 11
0
 20
-38.008
 21
-38
  0
LINE
  8
0
 10
0
 11
0.087
 20
-38
 21
-38.008
  0
LINE
  8
0
 10
0.087
 11
0.171
 20
-38.008
 21
-38.03
  0
LINE
  8
0
 10
0.171
 11
0.25
 20
-38.03
 21
-38.067
  0
LINE
  8
0
 10
0.25
 11
0.321
 20
-38.067
 21
-38.117
  0
LINE
  8
0
 10
0.321
 11
0.383
 20
-38.117
 21
-38.179
  0
LINE
  8
0
 10
0.383
 11
0.433
 20
-38.179
 21
-38.25
  0
LINE
  8
0
 10
0.433
 11
0.47
 20
-38.25
 21
-38.329
  0
LINE
  8
0
 10
0.47
 11
0.492
 20
-38.329
 21
-38.413
  0
LINE
  8
0
 10
0.492
 11
0.5
 20
-38.413
 21
-38.5
  0
LINE
  8
0
 10
0.5
 11
0.492
 20
-38.5
 21
-38.587
  0
LINE
  8
0
 10
0.492
 11
0.47
 20
-38.587
 21
-38.671
  0
LINE
  8
0
 10
0.47
 11
0.433
 20
-38.671
 21
-38.75
  0
LINE
  8
0
 10
0.433
 11
0.383
 20
-38.75
 21
-38.821
  0
LINE
  8
0
 10
0.383
 11
0.321
 20
-38.821
 21
-38.883
  0
LINE
  8
0
 10
0.321
 11
0.25
 20
-38.883
 21
-38.933
  0
LINE
  8
0
 10
0.25
 11
0.171
 20
-38.933
 21
-38.97
  0
LINE
  8
0
 10
0.171
 11
0.087
 20
-38.97
 21
-38.992
  0
LINE
  8
0
 10
0.087
 11
0
 20
-38.992
 21
-39
  0
LINE
  8
0
 10
0
 11
-0.087
 20
-39
 21
-38.992
  0
LINE
  8
0
 10
-0.087
 11
-0.171
 20
-38.992
 21
-38.97
  0
LINE
  8
0
 10
-0.171
 11
-0.25
 20
-38.97
 21
-38.933
  0
LINE
  8
0
 10
-0.25
 11
-0.321
 20
-38.933
 21
-38.883
  0
LINE
  8
0
 10
-0.321
 11
-0.383
 20
-38.883
 21
-38.821
  0
LINE
  8
0
 10
-0.383
 11
-0.433
 20
-38.821
 21
-38.75
  0
LINE
  8
0
 10
-0.433
 11
-0.47
 20
-38.75
 21
-38.671
  0
LINE
  8
0
 10
-0.47
 11
-0.492
 20
-38.671
 21
-38.587
  0
LINE
  8
0
 10
-0.492
 11
-0.5
 20
-38.587
 21
-38.5
  0
LINE
  8
0
 10
6.323
 11
6.323
 20
17.646
 21
25
  0
LINE
  8
0
 10
6.323
 11
6.338
 20
25
 21
25.174
  0
LINE
  8
0
 10
6.338
 11
6.383
 20
25.174
 21
25.342
  0
LINE
  8
0
 10
6.383
 11
6.457
 20
25.342
 21
25.5
  0
LINE
  8
0
 10
6.457
 11
6.557
 20
25.5
 21
25.643
  0
LINE
  8
0
 10
6.557
 11
6.68
 20
25.643
 21
25.766
  0
LINE
  8
0
 10
6.68
 11
6.823
 20
25.766
 21
25.866
  0
LINE
  8
0
 10
6.823
 11
6.981
 20
25.866
 21
25.94
  0
LINE
  8
0
 10
6.981
 11
7.149
 20
25.94
 21
25.985
  0
LINE
  8
0
 10
7.149
 11
7.323
 20
25.985
 21
26
  0
LINE
  8
0
 10
7.323
 11
14.677
 20
26
 21
26
  0
LINE
  8
0
 10
14.677
 11
14.851
 20
26
 21
25.985
  0
LINE
  8
0
 10
14.851
 11
15.019
 20
25.985
 21
25.94
  0
LINE
  8
0
 10
15.019
 11
15.177
 20
25.94
 21
25.866
  0
LINE
  8
0
 10
15.177
 11
15.32
 20
25.866
 21
25.766
  0
LINE
  8
0
 10
15.32
 11
15.443
 20
25.766
 21
25.643
  0
LINE
  8
0
 10
15.443
 11
15.543
 20
25.643
 21
25.5
  0
LINE
  8
0
 10
15.543
 11
15.617
 20
25.5
 21
25.342
  0
LINE
  8
0
 10
15.617
 11
15.662
 20
25.342
 21
25.174
  0
LINE
  8
0
 10
15.662
 11
15.677
 20
25.174
 21
25
  0
LINE
  8
0
 10
15.677
 11
15.677
 20
25
 21
17.646
  0
LINE
  8
0
 10
15.677
 11
15.662
 20
17.646
 21
17.472
  0
LINE
  8
0
 10
15.662
 11
15.617
 20
17.472
 21
17.304
  0
LINE
  8
0
 10
15.617
 11
15.543
 20
17.304
 21
17.146
  0
LINE
  8
0
 10
15.543
 11
15.443
 20
17.146
 21
17.003
  0
LINE
  8
0
 10
15.443
 11
15.32
 20
17.003
 21
16.88
  0
LINE
  8
0
 10
15.32
 11
15.177
 20
16.88
 21
16.78
  0
LINE
  8
0
 10
15.177
 11
15.019
 20
16.78
 21
16.706
  0
LINE
  8
0
 10
15.019
 11
14.851
 20
16.706
 21
16.661
  0
LINE
  8
0
 10
14.851
 11
14.677
 20
16.661
 21
16.646
  0
LINE
  8
0
 10
14.677
 11
7.323
 20
16.646
 21
16.646
  0
LINE
  8
0
 10
7.323
 11
7.149
 20
16.646
 21
16.661
  0
LINE
  8
0
 10
7.149
 11
6.981
 20
16.661
 21
16.706
  0
LINE
  8
0
 10
6.981
 11
6.823
 20
16.706
 21
16.78
  0
LINE
  8
0
 10
6.823
 11
6.68
 20
16.78
 21
16.88
  0
LINE
  8
0
 10
6.68
 11
6.557
 20
16.88
 21
17.003
  0
LINE
  8
0
 10
6.557
 11
6.457
 20
17.003
 21
17.146
  0
LINE
  8
0
 10
6.457
 11
6.383
 20
17.146
 21
17.304
  0
LINE
  8
0
 10
6.383
 11
6.338
 20
17.304
 21
17.472
  0
LINE
  8
0
 10
6.338
 11
6.323
 20
17.472
 21
17.646
  0
LINE
  8
0
 10
9.425
 11
9.449
 20
21.323
 21
21.596
  0
LINE
  8
0
 10
9.449
 11
9.52
 20
21.596
 21
21.862
  0
LINE
  8
0
 10
9.52
 11
9.636
 20
21.862
 21
22.111
  0
LINE
  8
0
 10
9.636
 11
9.793
 20
22.111
 21
22.335
  0
LINE
  8
0
 10
9.793
 11
9.988
 20
22.335
 21
22.53
  0
LINE
  8
0
 10
9.988
 11
10.212
 20
22.53
 21
22.687
  0
LINE
  8
0
 10
10.212
 11
10.461
 20
22.687
 21
22.803
  0
LINE
  8
0
 10
10.461
 11
10.727
 20
22.803
 21
22.874
  0
LINE
  8
0
 10
10.727
 11
11
 20
22.874
 21
22.898
  0
LINE
  8
0
 10
11
 11
11.273
 20
22.898
 21
22.874
  0
LINE
  8
0
 10
11.273
 11
11.539
 20
22.874
 21
22.803
  0
LINE
  8
0
 10
11.539
 11
11.788
 20
22.803
 21
22.687
  0
LINE
  8
0
 10
11.788
 11
12.012
 20
22.687
 21
22.53
  0
LINE
  8
0
 10
12.012
 11
12.207
 20
22.53
 21
22.335
  0
LINE
  8
0
 10
12.207
 11
12.364
 20
22.335
 21
22.111
  0
LINE
  8
0
 10
12.364
 11
12.48
 20
22.111
 21
21.862
  0
LINE
  8
0
 10
12.48
 11
12.551
 20
21.862
 21
21.596
  0
LINE
  8
0
 10
12.551
 11
12.575
 20
21.596
 21
21.323
  0
LINE
  8
0
 10
12.575
 11
12.551
 20
21.323
 21
21.05
  0
LINE
  8
0
 10
12.551
 11
12.48
 20
21.05
 21
20.784
  0
LINE
  8
0
 10
12.48
 11
12.364
 20
20.784
 21
20.535
  0
LINE
  8
0
 10
12.364
 11
12.207
 20
20.535
 21
20.311
  0
LINE
  8
0
 10
12.207
 11
12.012
 20
20.311
 21
20.116
  0
LINE
  8
0
 10
12.012
 11
11.788
 20
20.116
 21
19.959
  0
LINE
  8
0
 10
11.788
 11
11.539
 20
19.959
 21
19.843
  0
LINE
  8
0
 10
11.539
 11
11.273
 20
19.843
 21
19.772
  0
LINE
  8
0
 10
11.273
 11
11
 20
19.772
 21
19.748
  0
LINE
  8
0
 10
11
 11
10.727
 20
19.748
 21
19.772
  0
LINE
  8
0
 10
10.727
 11
10.461
 20
19.772
 21
19.843
  0
LINE
  8
0
 10
10.461
 11
10.212
 20
19.843
 21
19.959
  0
LINE
  8
0
 10
10.212
 11
9.988
 20
19.959
 21
20.116
  0
LINE
  8
0
 10
9.988
 11
9.793
 20
20.116
 21
20.311
  0
LINE
  8
0
 10
9.793
 11
9.636
 20
20.311
 21
20.535
  0
LINE
  8
0
 10
9.636
 11
9.52
 20
20.535
 21
20.784
  0
LINE
  8
0
 10
9.52
 11
9.449
 20
20.784
 21
21.05
  0
LINE
  8
0
 10
9.449
 11
9.425
 20
21.05
 21
21.323
  0
LINE
  8
0
 10
16.44
 11
16.44
 20
-53
 21
-48
  0
LINE
  8
0
 10
16.44
 11
19.44
 20
-48
 21
-48
  0
LINE
  8
0
 10
19.44
 11
19.44
 20
-48
 21
-53
  0
LINE
  8
0
 10
19.44
 11
16.44
 20
-53
 21
-53
  0
LINE
  8
0
 10
16.44
 11
16.44
 20
-29
 21
-24
  0
LINE
  8
0
 10
16.44
 11
19.44
 20
-24
 21
-24
  0
LINE
  8
0
 10
19.44
 11
19.44
 20
-24
 21
-29
  0
LINE
  8
0
 10
19.44
 11
16.44
 20
-29
 21
-29
  0
LINE
  8
0
 10
17.323
 11
17.323
 20
17.646
 21
25
  0
LINE
  8
0
 10
17.323
 11
17.338
 20
25
 21
25.174
  0
LINE
  8
0
 10
17.338
 11
17.383
 20
25.174
 21
25.342
  0
LINE
  8
0
 10
17.383
 11
17.457
 20
25.342
 21
25.5
  0
LINE
  8
0
 10
17.457
 11
17.557
 20
25.5
 21
25.643
  0
LINE
  8
0
 10
17.557
 11
17.68
 20
25.643
 21
25.766
  0
LINE
  8
0
 10
17.68
 11
17.823
 20
25.766
 21
25.866
  0
LINE
  8
0
 10
17.823
 11
17.981
 20
25.866
 21
25.94
  0
LINE
  8
0
 10
17.981
 11
18.149
 20
25.94
 21
25.985
  0
LINE
  8
0
 10
18.149
 11
18.323
 20
25.985
 21
26
  0
LINE
  8
0
 10
18.323
 11
19.5
 20
26
 21
26
  0
LINE
  8
0
 10
19.5
 11
19.5
 20
26
 21
29
  0
LINE
  8
0
 10
19.5
 11
24.5
 20
29
 21
29
  0
LINE
  8
0
 10
24.5
 11
24.5
 20
29
 21
26
  0
LINE
  8
0
 10
24.5
 11
25.677
 20
26
 21
26
  0
LINE
  8
0
 10
25.677
 11
25.851
 20
26
 21
25.985
  0
LINE
  8
0
 10
25.851
 11
26.019
 20
25.985
 21
25.94
  0
LINE
  8
0
 10
26.019
 11
26.177
 20
25.94
 21
25.866
  0
LINE
  8
0
 10
26.177
 11
26.32
 20
25.866
 21
25.766
  0
LINE
  8
0
 10
26.32
 11
26.443
 20
25.766
 21
25.643
  0
LINE
  8
0
 10
26.443
 11
26.543
 20
25.643
 21
25.5
  0
LINE
  8
0
 10
26.543
 11
26.617
 20
25.5
 21
25.342
  0
LINE
  8
0
 10
26.617
 11
26.662
 20
25.342
 21
25.174
  0
LINE
  8
0
 10
26.662
 11
26.677
 20
25.174
 21
25
  0
LINE
  8
0
 10
26.677
 11
26.677
 20
25
 21
17.646
  0
LINE
  8
0
 10
26.677
 11
26.662
 20
17.646
 21
17.472
  0
LINE
  8
0
 10
26.662
 11
26.617
 20
17.472
 21
17.304
  0
LINE
  8
0
 10
26.617
 11
26.543
 20
17.304
 21
17.146
  0
LINE
  8
0
 10
26.543
 11
26.443
 20
17.146
 21
17.003
  0
LINE
  8
0
 10
26.443
 11
26.32
 20
17.003
 21
16.88
  0
LINE
  8
0
 10
26.32
 11
26.177
 20
16.88
 21
16.78
  0
LINE
  8
0
 10
26.177
 11
26.019
 20
16.78
 21
16.706
  0
LINE
  8
0
 10
26.019
 11
25.851
 20
16.706
 21
16.661
  0
LINE
  8
0
 10
25.851
 11
25.677
 20
16.661
 21
16.646
  0
LINE
  8
0
 10
25.677
 11
18.323
 20
16.646
 21
16.646
  0
LINE
  8
0
 10
18.323
 11
18.149
 20
16.646
 21
16.661
  0
LINE
  8
0
 10
18.149
 11
17.981
 20
16.661
 21
16.706
  0
LINE
  8
0
 10
17.981
 11
17.823
 20
16.706
 21
16.78
  0
LINE
  8
0
 10
17.823
 11
17.68
 20
16.78
 21
16.88
  0
LINE
  8
0
 10
17.68
 11
17.557
 20
16.88
 21
17.003
  0
LINE
  8
0
 10
17.557
 11
17.457
 20
17.003
 21
17.146
  0
LINE
  8
0
 10
17.457
 11
17.383
 20
17.146
 21
17.304
  0
LINE
  8
0
 10
17.383
 11
17.338
 20
17.304
 21
17.472
  0
LINE
  8
0
 10
17.338
 11
17.323
 20
17.472
 21
17.646
  0
LINE
  8
0
 10
18.882
 11
20.441
 20
21.323
 21
24.023
  0
LINE
  8
0
 10
20.441
 11
23.559
 20
24.023
 21
24.023
  0
LINE
  8
0
 10
23.559
 11
25.118
 20
24.023
 21
21.323
  0
LINE
  8
0
 10
25.118
 11
23.559
 20
21.323
 21
18.623
  0
LINE
  8
0
 10
23.559
 11
20.441
 20
18.623
 21
18.623
  0
LINE
  8
0
 10
20.441
 11
18.882
 20
18.623
 21
21.323
  0
LINE
  8
0
 10
23.5
 11
23.5
 20
-52.5
 21
-47.5
  0
LINE
  8
0
 10
23.5
 11
26.5
 20
-47.5
 21
-47.5
  0
LINE
  8
0
 10
26.5
 11
26.5
 20
-47.5
 21
-42.5
  0
LINE
  8
0
 10
26.5
 11
23.5
 20
-42.5
 21
-42.5
  0
LINE
  8
0
 10
23.5
 11
23.5
 20
-42.5
 21
-37.5
  0
LINE
  8
0
 10
23.5
 11
26.5
 20
-37.5
 21
-37.5
  0
LINE
  8
0
 10
26.5
 11
26.5
 20
-37.5
 21
-33
  0
LINE
  8
0
 10
26.5
 11
41
 20
-33
 21
-33
  0
LINE
  8
0
 10
41
 11
41
 20
-33
 21
-30
  0
LINE
  8
0
 10
41
 11
51
 20
-30
 21
-30
  0
LINE
  8
0
 10
51
 11
51
 20
-30
 21
-33
  0
LINE
  8
0
 10
51
 11
65.5
 20
-33
 21
-33
  0
LINE
  8
0
 10
65.5
 11
65.5
 20
-33
 21
-37.5
  0
LINE
  8
0
 10
65.5
 11
68.5
 20
-37.5
 21
-37.5
  0
LINE
  8
0
 10
68.5
 11
68.5
 20
-37.5
 21
-42.5
  0
LINE
  8
0
 10
68.5
 11
65.5
 20
-42.5
 21
-42.5
  0
LINE
  8
0
 10
65.5
 11
65.5
 20
-42.5
 21
-47.5
  0
LINE
  8
0
 10
65.5
 11
68.5
 20
-47.5
 21
-47.5
  0
LINE
  8
0
 10
68.5
 11
68.5
 20
-47.5
 21
-52.5
  0
LINE
  8
0
 10
68.5
 11
65.5
 20
-52.5
 21
-52.5
  0
LINE
  8
0
 10
65.5
 11
65.5
 20
-52.5
 21
-57
  0
LINE
  8
0
 10
65.5
 11
63.5
 20
-57
 21
-57
  0
LINE
  8
0
 10
63.5
 11
63.5
 20
-57
 21
-60
  0
LINE
  8
0
 10
63.5
 11
58.5
 20
-60
 21
-60
  0
LINE
  8
0
 10
58.5
 11
58.5
 20
-60
 21
-57
  0
LINE
  8
0
 10
58.5
 11
53.5
 20
-57
 21
-57
  0
LINE
  8
0
 10
53.5
 11
53.5
 20
-57
 21
-60
  0
LINE
  8
0
 10
53.5
 11
48.5
 20
-60
 21
-60
  0
LINE
  8
0
 10
48.5
 11
48.5
 20
-60
 21
-57
  0
LINE
  8
0
 10
48.5
 11
43.5
 20
-57
 21
-57
  0
LINE
  8
0
 10
43.5
 11
43.5
 20
-57
 21
-60
  0
LINE
  8
0
 10
43.5
 11
38.5
 20
-60
 21
-60
  0
LINE
  8
0
 10
38.5
 11
38.5
 20
-60
 21
-57
  0
LINE
  8
0
 10
38.5
 11
33.5
 20
-57
 21
-57
  0
LINE
  8
0
 10
33.5
 11
33.5
 20
-57
 21
-60
  0
LINE
  8
0
 10
33.5
 11
28.5
 20
-60
 21
-60
  0
LINE
  8
0
 10
28.5
 11
28.5
 20
-60
 21
-57
  0
LINE
  8
0
 10
28.5
 11
26.5
 20
-57
 21
-57
  0
LINE
  8
0
 10
26.5
 11
26.5
 20
-57
 21
-52.5
  0
LINE
  8
0
 10
26.5
 11
23.5
 20
-52.5
 21
-52.5
  0
LINE
  8
0
 10
23.5
 11
23.5
 20
-7.5
 21
-2.5
  0
LINE
  8
0
 10
23.5
 11
26.5
 20
-2.5
 21
-2.5
  0
LINE
  8
0
 10
26.5
 11
26.5
 20
-2.5
 21
2.5
  0
LINE
  8
0
 10
26.5
 11
23.5
 20
2.5
 21
2.5
  0
LINE
  8
0
 10
23.5
 11
23.5
 20
2.5
 21
7.5
  0
LINE
  8
0
 10
23.5
 11
26.5
 20
7.5
 21
7.5
  0
LINE
  8
0
 10
26.5
 11
26.5
 20
7.5
 21
12
  0
LINE
  8
0
 10
26.5
 11
41
 20
12
 21
12
  0
LINE
  8
0
 10
41
 11
41
 20
12
 21
15
  0
LINE
  8
0
 10
41
 11
51
 20
15
 21
15
  0
LINE
  8
0
 10
51
 11
51
 20
15
 21
12
  0
LINE
  8
0
 10
51
 11
65.5
 20
12
 21
12
  0
LINE
  8
0
 10
65.5
 11
65.5
 20
12
 21
7.5
  0
LINE
  8
0
 10
65.5
 11
68.5
 20
7.5
 21
7.5
  0
LINE
  8
0
 10
68.5
 11
68.5
 20
7.5
 21
2.5
  0
LINE
  8
0
 10
68.5
 11
65.5
 20
2.5
 21
2.5
  0
LINE
  8
0
 10
65.5
 11
65.5
 20
2.5
 21
-2.5
  0
LINE
  8
0
 10
65.5
 11
68.5
 20
-2.5
 21
-2.5
  0
LINE
  8
0
 10
68.5
 11
68.5
 20
-2.5
 21
-7.5
  0
LINE
  8
0
 10
68.5
 11
65.5
 20
-7.5
 21
-7.5
  0
LINE
  8
0
 10
65.5
 11
65.5
 20
-7.5
 21
-12
  0
LINE
  8
0
 10
65.5
 11
63.5
 20
-12
 21
-12
  0
LINE
  8
0
 10
63.5
 11
63.5
 20
-12
 21
-15
  0
LINE
  8
0
 10
63.5
 11
58.5
 20
-15
 21
-15
  0
LINE
  8
0
 10
58.5
 11
58.5
 20
-15
 21
-12
  0
LINE
  8
0
 10
58.5
 11
53.5
 20
-12
 21
-12
  0
LINE
  8
0
 10
53.5
 11
53.5
 20
-12
 21
-15
  0
LINE
  8
0
 10
53.5
 11
48.5
 20
-15
 21
-15
  0
LINE
  8
0
 10
48.5
 11
48.5
 20
-15
 21
-12
  0
LINE
  8
0
 10
48.5
 11
43.5
 20
-12
 21
-12
  0
LINE
  8
0
 10
43.5
 11
43.5
 20
-12
 21
-15
  0
LINE
  8
0
 10
43.5
 11
38.5
 20
-15
 21
-15
  0
LINE
  8
0
 10
38.5
 11
38.5
 20
-15
 21
-12
  0
LINE
  8
0
 10
38.5
 11
33.5
 20
-12
 21
-12
  0
LINE
  8
0
 10
33.5
 11
33.5
 20
-12
 21
-15
  0
LINE
  8
0
 10
33.5
 11
28.5
 20
-15
 21
-15
  0
LINE
  8
0
 10
28.5
 11
28.5
 20
-15
 21
-12
  0
LINE
  8
0
 10
28.5
 11
26.5
 20
-12
 21
-12
  0
LINE
  8
0
 10
26.5
 11
26.5
 20
-12
 21
-7.5
  0
LINE
  8
0
 10
26.5
 11
23.5
 20
-7.5
 21
-7.5
  0
LINE
  8
0
 10
28.323
 11
28.323
 20
17.646
 21
25
  0
LINE
  8
0
 10
28.323
 11
28.338
 20
25
 21
25.174
  0
LINE
  8
0
 10
28.338
 11
28.383
 20
25.174
 21
25.342
  0
LINE
  8
0
 10
28.383
 11
28.457
 20
25.342
 21
25.5
  0
LINE
  8
0
 10
28.457
 11
28.557
 20
25.5
 21
25.643
  0
LINE
  8
0
 10
28.557
 11
28.68
 20
25.643
 21
25.766
  0
LINE
  8
0
 10
28.68
 11
28.823
 20
25.766
 21
25.866
  0
LINE
  8
0
 10
28.823
 11
28.981
 20
25.866
 21
25.94
  0
LINE
  8
0
 10
28.981
 11
29.149
 20
25.94
 21
25.985
  0
LINE
  8
0
 10
29.149
 11
29.323
 20
25.985
 21
26
  0
LINE
  8
0
 10
29.323
 11
36.677
 20
26
 21
26
  0
LINE
  8
0
 10
36.677
 11
36.851
 20
26
 21
25.985
  0
LINE
  8
0
 10
36.851
 11
37.019
 20
25.985
 21
25.94
  0
LINE
  8
0
 10
37.019
 11
37.177
 20
25.94
 21
25.866
  0
LINE
  8
0
 10
37.177
 11
37.32
 20
25.866
 21
25.766
  0
LINE
  8
0
 10
37.32
 11
37.443
 20
25.766
 21
25.643
  0
LINE
  8
0
 10
37.443
 11
37.543
 20
25.643
 21
25.5
  0
LINE
  8
0
 10
37.543
 11
37.617
 20
25.5
 21
25.342
  0
LINE
  8
0
 10
37.617
 11
37.662
 20
25.342
 21
25.174
  0
LINE
  8
0
 10
37.662
 11
37.677
 20
25.174
 21
25
  0
LINE
  8
0
 10
37.677
 11
37.677
 20
25
 21
17.646
  0
LINE
  8
0
 10
37.677
 11
37.662
 20
17.646
 21
17.472
  0
LINE
  8
0
 10
37.662
 11
37.617
 20
17.472
 21
17.304
  0
LINE
  8
0
 10
37.617
 11
37.543
 20
17.304
 21
17.146
  0
LINE
  8
0
 10
37.543
 11
37.443
 20
17.146
 21
17.003
  0
LINE
  8
0
 10
37.443
 11
37.32
 20
17.003
 21
16.88
  0
LINE
  8
0
 10
37.32
 11
37.177
 20
16.88
 21
16.78
  0
LINE
  8
0
 10
37.177
 11
37.019
 20
16.78
 21
16.706
  0
LINE
  8
0
 10
37.019
 11
36.851
 20
16.706
 21
16.661
  0
LINE
  8
0
 10
36.851
 11
36.677
 20
16.661
 21
16.646
  0
LINE
  8
0
 10
36.677
 11
29.323
 20
16.646
 21
16.646
  0
LINE
  8
0
 10
29.323
 11
29.149
 20
16.646
 21
16.661
  0
LINE
  8
0
 10
29.149
 11
28.981
 20
16.661
 21
16.706
  0
LINE
  8
0
 10
28.981
 11
28.823
 20
16.706
 21
16.78
  0
LINE
  8
0
 10
28.823
 11
28.68
 20
16.78
 21
16.88
  0
LINE
  8
0
 10
28.68
 11
28.557
 20
16.88
 21
17.003
  0
LINE
  8
0
 10
28.557
 11
28.457
 20
17.003
 21
17.146
  0
LINE
  8
0
 10
28.457
 11
28.383
 20
17.146
 21
17.304
  0
LINE
  8
0
 10
28.383
 11
28.338
 20
17.304
 21
17.472
  0
LINE
  8
0
 10
28.338
 11
28.323
 20
17.472
 21
17.646
  0
LINE
  8
0
 10
31.425
 11
31.449
 20
21.323
 21
21.596
  0
LINE
  8
0
 10
31.449
 11
31.52
 20
21.596
 21
21.862
  0
LINE
  8
0
 10
31.52
 11
31.636
 20
21.862
 21
22.111
  0
LINE
  8
0
 10
31.636
 11
31.793
 20
22.111
 21
22.335
  0
LINE
  8
0
 10
31.793
 11
31.988
 20
22.335
 21
22.53
  0
LINE
  8
0
 10
31.988
 11
32.212
 20
22.53
 21
22.687
  0
LINE
  8
0
 10
32.212
 11
32.461
 20
22.687
 21
22.803
  0
LINE
  8
0
 10
32.461
 11
32.727
 20
22.803
 21
22.874
  0
LINE
  8
0
 10
32.727
 11
33
 20
22.874
 21
22.898
  0
LINE
  8
0
 10
33
 11
33.273
 20
22.898
 21
22.874
  0
LINE
  8
0
 10
33.273
 11
33.539
 20
22.874
 21
22.803
  0
LINE
  8
0
 10
33.539
 11
33.788
 20
22.803
 21
22.687
  0
LINE
  8
0
 10
33.788
 11
34.012
 20
22.687
 21
22.53
  0
LINE
  8
0
 10
34.012
 11
34.207
 20
22.53
 21
22.335
  0
LINE
  8
0
 10
34.207
 11
34.364
 20
22.335
 21
22.111
  0
LINE
  8
0
 10
34.364
 11
34.48
 20
22.111
 21
21.862
  0
LINE
  8
0
 10
34.48
 11
34.551
 20
21.862
 21
21.596
  0
LINE
  8
0
 10
34.551
 11
34.575
 20
21.596
 21
21.323
  0
LINE
  8
0
 10
34.575
 11
34.551
 20
21.323
 21
21.05
  0
LINE
  8
0
 10
34.551
 11
34.48
 20
21.05
 21
20.784
  0
LINE
  8
0
 10
34.48
 11
34.364
 20
20.784
 21
20.535
  0
LINE
  8
0
 10
34.364
 11
34.207
 20
20.535
 21
20.311
  0
LINE
  8
0
 10
34.207
 11
34.012
 20
20.311
 21
20.116
  0
LINE
  8
0
 10
34.012
 11
33.788
 20
20.116
 21
19.959
  0
LINE
  8
0
 10
33.788
 11
33.539
 20
19.959
 21
19.843
  0
LINE
  8
0
 10
33.539
 11
33.273
 20
19.843
 21
19.772
  0
LINE
  8
0
 10
33.273
 11
33
 20
19.772
 21
19.748
  0
LINE
  8
0
 10
33
 11
32.727
 20
19.748
 21
19.772
  0
LINE
  8
0
 10
32.727
 11
32.461
 20
19.772
 21
19.843
  0
LINE
  8
0
 10
32.461
 11
32.212
 20
19.843
 21
19.959
  0
LINE
  8
0
 10
32.212
 11
31.988
 20
19.959
 21
20.116
  0
LINE
  8
0
 10
31.988
 11
31.793
 20
20.116
 21
20.311
  0
LINE
  8
0
 10
31.793
 11
31.636
 20
20.311
 21
20.535
  0
LINE
  8
0
 10
31.636
 11
31.52
 20
20.535
 21
20.784
  0
LINE
  8
0
 10
31.52
 11
31.449
 20
20.784
 21
21.05
  0
LINE
  8
0
 10
31.449
 11
31.425
 20
21.05
 21
21.323
  0
LINE
  8
0
 10
32.425
 11
32.449
 20
-36
 21
-35.727
  0
LINE
  8
0
 10
32.449
 11
32.52
 20
-35.727
 21
-35.461
  0
LINE
  8
0
 10
32.52
 11
32.636
 20
-35.461
 21
-35.212
  0
LINE
  8
0
 10
32.636
 11
32.793
 20
-35.212
 21
-34.988
  0
LINE
  8
0
 10
32.793
 11
32.988
 20
-34.988
 21
-34.793
  0
LINE
  8
0
 10
32.988
 11
33.212
 20
-34.793
 21
-34.636
  0
LINE
  8
0
 10
33.212
 11
33.461
 20
-34.636
 21
-34.52
  0
LINE
  8
0
 10
33.461
 11
33.727
 20
-34.52
 21
-34.449
  0
LINE
  8
0
 10
33.727
 11
34
 20
-34.449
 21
-34.425
  0
LINE
  8
0
 10
34
 11
34.273
 20
-34.425
 21
-34.449
  0
LINE
  8
0
 10
34.273
 11
34.539
 20
-34.449
 21
-34.52
  0
LINE
  8
0
 10
34.539
 11
34.788
 20
-34.52
 21
-34.636
  0
LINE
  8
0
 10
34.788
 11
35.012
 20
-34.636
 21
-34.793
  0
LINE
  8
0
 10
35.012
 11
35.207
 20
-34.793
 21
-34.988
  0
LINE
  8
0
 10
35.207
 11
35.364
 20
-34.988
 21
-35.212
  0
LINE
  8
0
 10
35.364
 11
35.48
 20
-35.212
 21
-35.461
  0
LINE
  8
0
 10
35.48
 11
35.551
 20
-35.461
 21
-35.727
  0
LINE
  8
0
 10
35.551
 11
35.575
 20
-35.727
 21
-36
  0
LINE
  8
0
 10
35.575
 11
35.551
 20
-36
 21
-36.273
  0
LINE
  8
0
 10
35.551
 11
35.48
 20
-36.273
 21
-36.539
  0
LINE
  8
0
 10
35.48
 11
35.364
 20
-36.539
 21
-36.788
  0
LINE
  8
0
 10
35.364
 11
35.207
 20
-36.788
 21
-37.012
  0
LINE
  8
0
 10
35.207
 11
35.012
 20
-37.012
 21
-37.207
  0
LINE
  8
0
 10
35.012
 11
34.788
 20
-37.207
 21
-37.364
  0
LINE
  8
0
 10
34.788
 11
34.539
 20
-37.364
 21
-37.48
  0
LINE
  8
0
 10
34.539
 11
34.273
 20
-37.48
 21
-37.551
  0
LINE
  8
0
 10
34.273
 11
34
 20
-37.551
 21
-37.575
  0
LINE
  8
0
 10
34
 11
33.727
 20
-37.575
 21
-37.551
  0
LINE
  8
0
 10
33.727
 11
33.461
 20
-37.551
 21
-37.48
  0
LINE
  8
0
 10
33.461
 11
33.212
 20
-37.48
 21
-37.364
  0
LINE
  8
0
 10
33.212
 11
32.988
 20
-37.364
 21
-37.207
  0
LINE
  8
0
 10
32.988
 11
32.793
 20
-37.207
 21
-37.012
  0
LINE
  8
0
 10
32.793
 11
32.636
 20
-37.012
 21
-36.788
  0
LINE
  8
0
 10
32.636
 11
32.52
 20
-36.788
 21
-36.539
  0
LINE
  8
0
 10
32.52
 11
32.449
 20
-36.539
 21
-36.273
  0
LINE
  8
0
 10
32.449
 11
32.425
 20
-36.273
 21
-36
  0
LINE
  8
0
 10
32.425
 11
32.449
 20
9
 21
9.273
  0
LINE
  8
0
 10
32.449
 11
32.52
 20
9.273
 21
9.539
  0
LINE
  8
0
 10
32.52
 11
32.636
 20
9.539
 21
9.788
  0
LINE
  8
0
 10
32.636
 11
32.793
 20
9.788
 21
10.012
  0
LINE
  8
0
 10
32.793
 11
32.988
 20
10.012
 21
10.207
  0
LINE
  8
0
 10
32.988
 11
33.212
 20
10.207
 21
10.364
  0
LINE
  8
0
 10
33.212
 11
33.461
 20
10.364
 21
10.48
  0
LINE
  8
0
 10
33.461
 11
33.727
 20
10.48
 21
10.551
  0
LINE
  8
0
 10
33.727
 11
34
 20
10.551
 21
10.575
  0
LINE
  8
0
 10
34
 11
34.273
 20
10.575
 21
10.551
  0
LINE
  8
0
 10
34.273
 11
34.539
 20
10.551
 21
10.48
  0
LINE
  8
0
 10
34.539
 11
34.788
 20
10.48
 21
10.364
  0
LINE
  8
0
 10
34.788
 11
35.012
 20
10.364
 21
10.207
  0
LINE
  8
0
 10
35.012
 11
35.207
 20
10.207
 21
10.012
  0
LINE
  8
0
 10
35.207
 11
35.364
 20
10.012
 21
9.788
  0
LINE
  8
0
 10
35.364
 11
35.48
 20
9.788
 21
9.539
  0
LINE
  8
0
 10
35.48
 11
35.551
 20
9.539
 21
9.273
  0
LINE
  8
0
 10
35.551
 11
35.575
 20
9.273
 21
9
  0
LINE
  8
0
 10
35.575
 11
35.551
 20
9
 21
8.727
  0
LINE
  8
0
 10
35.551
 11
35.48
 20
8.727
 21
8.461
  0
LINE
  8
0
 10
35.48
 11
35.364
 20
8.461
 21
8.212
  0
LINE
  8
0
 10
35.364
 11
35.207
 20
8.212
 21
7.988
  0
LINE
  8
0
 10
35.207
 11
35.012
 20
7.988
 21
7.793
  0
LINE
  8
0
 10
35.012
 11
34.788
 20
7.793
 21
7.636
  0
LINE
  8
0
 10
34.788
 11
34.539
 20
7.636
 21
7.52
  0
LINE
  8
0
 10
34.539
 11
34.273
 20
7.52
 21
7.449
  0
LINE
  8
0
 10
34.273
 11
34
 20
7.449
 21
7.425
  0
LINE
  8
0
 10
34
 11
33.727
 20
7.425
 21
7.449
  0
LINE
  8
0
 10
33.727
 11
33.461
 20
7.449
 21
7.52
  0
LINE
  8
0
 10
33.461
 11
33.212
 20
7.52
 21
7.636
  0
LINE
  8
0
 10
33.212
 11
32.988
 20
7.636
 21
7.793
  0
LINE
  8
0
 10
32.988
 11
32.793
 20
7.793
 21
7.988
  0
LINE
  8
0
 10
32.793
 11
32.636
 20
7.988
 21
8.212
  0
LINE
  8
0
 10
32.636
 11
32.52
 20
8.212
 21
8.461
  0
LINE
  8
0
 10
32.52
 11
32.449
 20
8.461
 21
8.727
  0
LINE
  8
0
 10
32.449
 11
32.425
 20
8.727
 21
9
  0
LINE
  8
0
 10
39.323
 11
39.323
 20
17.646
 21
25
  0
LINE
  8
0
 10
39.323
 11
39.338
 20
25
 21
25.174
  0
LINE
  8
0
 10
39.338
 11
39.383
 20
25.174
 21
25.342
  0
LINE
  8
0
 10
39.383
 11
39.457
 20
25.342
 21
25.5
  0
LINE
  8
0
 10
39.457
 11
39.557
 20
25.5
 21
25.643
  0
LINE
  8
0
 10
39.557
 11
39.68
 20
25.643
 21
25.766
  0
LINE
  8
0
 10
39.68
 11
39.823
 20
25.766
 21
25.866
  0
LINE
  8
0
 10
39.823
 11
39.981
 20
25.866
 21
25.94
  0
LINE
  8
0
 10
39.981
 11
40.149
 20
25.94
 21
25.985
  0
LINE
  8
0
 10
40.149
 11
40.323
 20
25.985
 21
26
  0
LINE
  8
0
 10
40.323
 11
41.5
 20
26
 21
26
  0
LINE
  8
0
 10
41.5
 11
41.5
 20
26
 21
29
  0
LINE
  8
0
 10
41.5
 11
46.5
 20
29
 21
29
  0
LINE
  8
0
 10
46.5
 11
46.5
 20
29
 21
26
  0
LINE
  8
0
 10
46.5
 11
47.677
 20
26
 21
26
  0
LINE
  8
0
 10
47.677
 11
47.851
 20
26
 21
25.985
  0
LINE
  8
0
 10
47.851
 11
48.019
 20
25.985
 21
25.94
  0
LINE
  8
0
 10
48.019
 11
48.177
 20
25.94
 21
25.866
  0
LINE
  8
0
 10
48.177
 11
48.32
 20
25.866
 21
25.766
  0
LINE
  8
0
 10
48.32
 11
48.443
 20
25.766
 21
25.643
  0
LINE
  8
0
 10
48.443
 11
48.543
 20
25.643
 21
25.5
  0
LINE
  8
0
 10
48.543
 11
48.617
 20
25.5
 21
25.342
  0
LINE
  8
0
 10
48.617
 11
48.662
 20
25.342
 21
25.174
  0
LINE
  8
0
 10
48.662
 11
48.677
 20
25.174
 21
25
  0
LINE
  8
0
 10
48.677
 11
48.677
 20
25
 21
17.646
  0
LINE
  8
0
 10
48.677
 11
48.662
 20
17.646
 21
17.472
  0
LINE
  8
0
 10
48.662
 11
48.617
 20
17.472
 21
17.304
  0
LINE
  8
0
 10
48.617
 11
48.543
 20
17.304
 21
17.146
  0
LINE
  8
0
 10
48.543
 11
48.443
 20
17.146
 21
17.003
  0
LINE
  8
0
 10
48.443
 11
48.32
 20
17.003
 21
16.88
  0
LINE
  8
0
 10
48.32
 11
48.177
 20
16.88
 21
16.78
  0
LINE
  8
0
 10
48.177
 11
48.019
 20
16.78
 21
16.706
  0
LINE
  8
0
 10
48.019
 11
47.851
 20
16.706
 21
16.661
  0
LINE
  8
0
 10
47.851
 11
47.677
 20
16.661
 21
16.646
  0
LINE
  8
0
 10
47.677
 11
40.323
 20
16.646
 21
16.646
  0
LINE
  8
0
 10
40.323
 11
40.149
 20
16.646
 21
16.661
  0
LINE
  8
0
 10
40.149
 11
39.981
 20
16.661
 21
16.706
  0
LINE
  8
0
 10
39.981
 11
39.823
 20
16.706
 21
16.78
  0
LINE
  8
0
 10
39.823
 11
39.68
 20
16.78
 21
16.88
  0
LINE
  8
0
 10
39.68
 11
39.557
 20
16.88
 21
17.003
  0
LINE
  8
0
 10
39.557
 11
39.457
 20
17.003
 21
17.146
  0
LINE
  8
0
 10
39.457
 11
39.383
 20
17.146
 21
17.304
  0
LINE
  8
0
 10
39.383
 11
39.338
 20
17.304
 21
17.472
  0
LINE
  8
0
 10
39.338
 11
39.323
 20
17.472
 21
17.646
  0
LINE
  8
0
 10
40.882
 11
42.441
 20
21.323
 21
24.023
  0
LINE
  8
0
 10
42.441
 11
45.559
 20
24.023
 21
24.023
  0
LINE
  8
0
 10
45.559
 11
47.118
 20
24.023
 21
21.323
  0
LINE
  8
0
 10
47.118
 11
45.559
 20
21.323
 21
18.623
  0
LINE
  8
0
 10
45.559
 11
42.441
 20
18.623
 21
18.623
  0
LINE
  8
0
 10
42.441
 11
40.882
 20
18.623
 21
21.323
  0
LINE
  8
0
 10
50.323
 11
50.323
 20
17.646
 21
25
  0
LINE
  8
0
 10
50.323
 11
50.338
 20
25
 21
25.174
  0
LINE
  8
0
 10
50.338
 11
50.383
 20
25.174
 21
25.342
  0
LINE
  8
0
 10
50.383
 11
50.457
 20
25.342
 21
25.5
  0
LINE
  8
0
 10
50.457
 11
50.557
 20
25.5
 21
25.643
  0
LINE
  8
0
 10
50.557
 11
50.68
 20
25.643
 21
25.766
  0
LINE
  8
0
 10
50.68
 11
50.823
 20
25.766
 21
25.866
  0
LINE
  8
0
 10
50.823
 11
50.981
 20
25.866
 21
25.94
  0
LINE
  8
0
 10
50.981
 11
51.149
 20
25.94
 21
25.985
  0
LINE
  8
0
 10
51.149
 11
51.323
 20
25.985
 21
26
  0
LINE
  8
0
 10
51.323
 11
58.677
 20
26
 21
26
  0
LINE
  8
0
 10
58.677
 11
58.851
 20
26
 21
25.985
  0
LINE
  8
0
 10
58.851
 11
59.019
 20
25.985
 21
25.94
  0
LINE
  8
0
 10
59.019
 11
59.177
 20
25.94
 21
25.866
  0
LINE
  8
0
 10
59.177
 11
59.32
 20
25.866
 21
25.766
  0
LINE
  8
0
 10
59.32
 11
59.443
 20
25.766
 21
25.643
  0
LINE
  8
0
 10
59.443
 11
59.543
 20
25.643
 21
25.5
  0
LINE
  8
0
 10
59.543
 11
59.617
 20
25.5
 21
25.342
  0
LINE
  8
0
 10
59.617
 11
59.662
 20
25.342
 21
25.174
  0
LINE
  8
0
 10
59.662
 11
59.677
 20
25.174
 21
25
  0
LINE
  8
0
 10
59.677
 11
59.677
 20
25
 21
17.646
  0
LINE
  8
0
 10
59.677
 11
59.662
 20
17.646
 21
17.472
  0
LINE
  8
0
 10
59.662
 11
59.617
 20
17.472
 21
17.304
  0
LINE
  8
0
 10
59.617
 11
59.543
 20
17.304
 21
17.146
  0
LINE
  8
0
 10
59.543
 11
59.443
 20
17.146
 21
17.003
  0
LINE
  8
0
 10
59.443
 11
59.32
 20
17.003
 21
16.88
  0
LINE
  8
0
 10
59.32
 11
59.177
 20
16.88
 21
16.78
  0
LINE
  8
0
 10
59.177
 11
59.019
 20
16.78
 21
16.706
  0
LINE
  8
0
 10
59.019
 11
58.851
 20
16.706
 21
16.661
  0
LINE
  8
0
 10
58.851
 11
58.677
 20
16.661
 21
16.646
  0
LINE
  8
0
 10
58.677
 11
51.323
 20
16.646
 21
16.646
  0
LINE
  8
0
 10
51.323
 11
51.149
 20
16.646
 21
16.661
  0
LINE
  8
0
 10
51.149
 11
50.981
 20
16.661
 21
16.706
  0
LINE
  8
0
 10
50.981
 11
50.823
 20
16.706
 21
16.78
  0
LINE
  8
0
 10
50.823
 11
50.68
 20
16.78
 21
16.88
  0
LINE
  8
0
 10
50.68
 11
50.557
 20
16.88
 21
17.003
  0
LINE
  8
0
 10
50.557
 11
50.457
 20
17.003
 21
17.146
  0
LINE
  8
0
 10
50.457
 11
50.383
 20
17.146
 21
17.304
  0
LINE
  8
0
 10
50.383
 11
50.338
 20
17.304
 21
17.472
  0
LINE
  8
0
 10
50.338
 11
50.323
 20
17.472
 21
17.646
  0
LINE
  8
0
 10
53.425
 11
53.449
 20
21.323
 21
21.596
  0
LINE
  8
0
 10
53.449
 11
53.52
 20
21.596
 21
21.862
  0
LINE
  8
0
 10
53.52
 11
53.636
 20
21.862
 21
22.111
  0
LINE
  8
0
 10
53.636
 11
53.793
 20
22.111
 21
22.335
  0
LINE
  8
0
 10
53.793
 11
53.988
 20
22.335
 21
22.53
  0
LINE
  8
0
 10
53.988
 11
54.212
 20
22.53
 21
22.687
  0
LINE
  8
0
 10
54.212
 11
54.461
 20
22.687
 21
22.803
  0
LINE
  8
0
 10
54.461
 11
54.727
 20
22.803
 21
22.874
  0
LINE
  8
0
 10
54.727
 11
55
 20
22.874
 21
22.898
  0
LINE
  8
0
 10
55
 11
55.273
 20
22.898
 21
22.874
  0
LINE
  8
0
 10
55.273
 11
55.539
 20
22.874
 21
22.803
  0
LINE
  8
0
 10
55.539
 11
55.788
 20
22.803
 21
22.687
  0
LINE
  8
0
 10
55.788
 11
56.012
 20
22.687
 21
22.53
  0
LINE
  8
0
 10
56.012
 11
56.207
 20
22.53
 21
22.335
  0
LINE
  8
0
 10
56.207
 11
56.364
 20
22.335
 21
22.111
  0
LINE
  8
0
 10
56.364
 11
56.48
 20
22.111
 21
21.862
  0
LINE
  8
0
 10
56.48
 11
56.551
 20
21.862
 21
21.596
  0
LINE
  8
0
 10
56.551
 11
56.575
 20
21.596
 21
21.323
  0
LINE
  8
0
 10
56.575
 11
56.551
 20
21.323
 21
21.05
  0
LINE
  8
0
 10
56.551
 11
56.48
 20
21.05
 21
20.784
  0
LINE
  8
0
 10
56.48
 11
56.364
 20
20.784
 21
20.535
  0
LINE
  8
0
 10
56.364
 11
56.207
 20
20.535
 21
20.311
  0
LINE
  8
0
 10
56.207
 11
56.012
 20
20.311
 21
20.116
  0
LINE
  8
0
 10
56.012
 11
55.788
 20
20.116
 21
19.959
  0
LINE
  8
0
 10
55.788
 11
55.539
 20
19.959
 21
19.843
  0
LINE
  8
0
 10
55.539
 11
55.273
 20
19.843
 21
19.772
  0
LINE
  8
0
 10
55.273
 11
55
 20
19.772
 21
19.748
  0
LINE
  8
0
 10
55
 11
54.727
 20
19.748
 21
19.772
  0
LINE
  8
0
 10
54.727
 11
54.461
 20
19.772
 21
19.843
  0
LINE
  8
0
 10
54.461
 11
54.212
 20
19.843
 21
19.959
  0
LINE
  8
0
 10
54.212
 11
53.988
 20
19.959
 21
20.116
  0
LINE
  8
0
 10
53.988
 11
53.793
 20
20.116
 21
20.311
  0
LINE
  8
0
 10
53.793
 11
53.636
 20
20.311
 21
20.535
  0
LINE
  8
0
 10
53.636
 11
53.52
 20
20.535
 21
20.784
  0
LINE
  8
0
 10
53.52
 11
53.449
 20
20.784
 21
21.05
  0
LINE
  8
0
 10
53.449
 11
53.425
 20
21.05
 21
21.323
  0
LINE
  8
0
 10
56.425
 11
56.449
 20
-36
 21
-35.727
  0
LINE
  8
0
 10
56.449
 11
56.52
 20
-35.727
 21
-35.461
  0
LINE
  8
0
 10
56.52
 11
56.636
 20
-35.461
 21
-35.212
  0
LINE
  8
0
 10
56.636
 11
56.793
 20
-35.212
 21
-34.988
  0
LINE
  8
0
 10
56.793
 11
56.988
 20
-34.988
 21
-34.793
  0
LINE
  8
0
 10
56.988
 11
57.212
 20
-34.793
 21
-34.636
  0
LINE
  8
0
 10
57.212
 11
57.461
 20
-34.636
 21
-34.52
  0
LINE
  8
0
 10
57.461
 11
57.727
 20
-34.52
 21
-34.449
  0
LINE
  8
0
 10
57.727
 11
58
 20
-34.449
 21
-34.425
  0
LINE
  8
0
 10
58
 11
58.273
 20
-34.425
 21
-34.449
  0
LINE
  8
0
 10
58.273
 11
58.539
 20
-34.449
 21
-34.52
  0
LINE
  8
0
 10
58.539
 11
58.788
 20
-34.52
 21
-34.636
  0
LINE
  8
0
 10
58.788
 11
59.012
 20
-34.636
 21
-34.793
  0
LINE
  8
0
 10
59.012
 11
59.207
 20
-34.793
 21
-34.988
  0
LINE
  8
0
 10
59.207
 11
59.364
 20
-34.988
 21
-35.212
  0
LINE
  8
0
 10
59.364
 11
59.48
 20
-35.212
 21
-35.461
  0
LINE
  8
0
 10
59.48
 11
59.551
 20
-35.461
 21
-35.727
  0
LINE
  8
0
 10
59.551
 11
59.575
 20
-35.727
 21
-36
  0
LINE
  8
0
 10
59.575
 11
59.551
 20
-36
 21
-36.273
  0
LINE
  8
0
 10
59.551
 11
59.48
 20
-36.273
 21
-36.539
  0
LINE
  8
0
 10
59.48
 11
59.364
 20
-36.539
 21
-36.788
  0
LINE
  8
0
 10
59.364
 11
59.207
 20
-36.788
 21
-37.012
  0
LINE
  8
0
 10
59.207
 11
59.012
 20
-37.012
 21
-37.207
  0
LINE
  8
0
 10
59.012
 11
58.788
 20
-37.207
 21
-37.364
  0
LINE
  8
0
 10
58.788
 11
58.539
 20
-37.364
 21
-37.48
  0
LINE
  8
0
 10
58.539
 11
58.273
 20
-37.48
 21
-37.551
  0
LINE
  8
0
 10
58.273
 11
58
 20
-37.551
 21
-37.575
  0
LINE
  8
0
 10
58
 11
57.727
 20
-37.575
 21
-37.551
  0
LINE
  8
0
 10
57.727
 11
57.461
 20
-37.551
 21
-37.48
  0
LINE
  8
0
 10
57.461
 11
57.212
 20
-37.48
 21
-37.364
  0
LINE
  8
0
 10
57.212
 11
56.988
 20
-37.364
 21
-37.207
  0
LINE
  8
0
 10
56.988
 11
56.793
 20
-37.207
 21
-37.012
  0
LINE
  8
0
 10
56.793
 11
56.636
 20
-37.012
 21
-36.788
  0
LINE
  8
0
 10
56.636
 11
56.52
 20
-36.788
 21
-36.539
  0
LINE
  8
0
 10
56.52
 11
56.449
 20
-36.539
 21
-36.273
  0
LINE
  8
0
 10
56.449
 11
56.425
 20
-36.273
 21
-36
  0
LINE
  8
0
 10
56.425
 11
56.449
 20
9
 21
9.273
  0
LINE
  8
0
 10
56.449
 11
56.52
 20
9.273
 21
9.539
  0
LINE
  8
0
 10
56.52
 11
56.636
 20
9.539
 21
9.788
  0
LINE
  8
0
 10
56.636
 11
56.793
 20
9.788
 21
10.012
  0
LINE
  8
0
 10
56.793
 11
56.988
 20
10.012
 21
10.207
  0
LINE
  8
0
 10
56.988
 11
57.212
 20
10.207
 21
10.364
  0
LINE
  8
0
 10
57.212
 11
57.461
 20
10.364
 21
10.48
  0
LINE
  8
0
 10
57.461
 11
57.727
 20
10.48
 21
10.551
  0
LINE
  8
0
 10
57.727
 11
58
 20
10.551
 21
10.575
  0
LINE
  8
0
 10
58
 11
58.273
 20
10.575
 21
10.551
  0
LINE
  8
0
 10
58.273
 11
58.539
 20
10.551
 21
10.48
  0
LINE
  8
0
 10
58.539
 11
58.788
 20
10.48
 21
10.364
  0
LINE
  8
0
 10
58.788
 11
59.012
 20
10.364
 21
10.207
  0
LINE
  8
0
 10
59.012
 11
59.207
 20
10.207
 21
10.012
  0
LINE
  8
0
 10
59.207
 11
59.364
 20
10.012
 21
9.788
  0
LINE
  8
0
 10
59.364
 11
59.48
 20
9.788
 21
9.539
  0
LINE
  8
0
 10
59.48
 11
59.551
 20
9.539
 21
9.273
  0
LINE
  8
0
 10
59.551
 11
59.575
 20
9.273
 21
9
  0
LINE
  8
0
 10
59.575
 11
59.551
 20
9
 21
8.727
  0
LINE
  8
0
 10
59.551
 11
59.48
 20
8.727
 21
8.461
  0
LINE
  8
0
 10
59.48
 11
59.364
 20
8.461
 21
8.212
  0
LINE
  8
0
 10
59.364
 11
59.207
 20
8.212
 21
7.988
  0
LINE
  8
0
 10
59.207
 11
59.012
 20
7.988
 21
7.793
  0
LINE
  8
0
 10
59.012
 11
58.788
 20
7.793
 21
7.636
  0
LINE
  8
0
 10
58.788
 11
58.539
 20
7.636
 21
7.52
  0
LINE
  8
0
 10
58.539
 11
58.273
 20
7.52
 21
7.449
  0
LINE
  8
0
 10
58.273
 11
58
 20
7.449
 21
7.425
  0
LINE
  8
0
 10
58
 11
57.727
 20
7.425
 21
7.449
  0
LINE
  8
0
 10
57.727
 11
57.461
 20
7.449
 21
7.52
  0
LINE
  8
0
 10
57.461
 11
57.212
 20
7.52
 21
7.636
  0
LINE
  8
0
 10
57.212
 11
56.988
 20
7.636
 21
7.793
  0
LINE
  8
0
 10
56.988
 11
56.793
 20
7.793
 21
7.988
  0
LINE
  8
0
 10
56.793
 11
56.636
 20
7.988
 21
8.212
  0
LINE
  8
0
 10
56.636
 11
56.52
 20
8.212
 21
8.461
  0
LINE
  8
0
 10
56.52
 11
56.449
 20
8.461
 21
8.727
  0
LINE
  8
0
 10
56.449
 11
56.425
 20
8.727
 21
9
  0
LINE
  8
0
 10
61.323
 11
61.323
 20
17.646
 21
25
  0
LINE
  8
0
 10
61.323
 11
61.338
 20
25
 21
25.174
  0
LINE
  8
0
 10
61.338
 11
61.383
 20
25.174
 21
25.342
  0
LINE
  8
0
 10
61.383
 11
61.457
 20
25.342
 21
25.5
  0
LINE
  8
0
 10
61.457
 11
61.557
 20
25.5
 21
25.643
  0
LINE
  8
0
 10
61.557
 11
61.68
 20
25.643
 21
25.766
  0
LINE
  8
0
 10
61.68
 11
61.823
 20
25.766
 21
25.866
  0
LINE
  8
0
 10
61.823
 11
61.981
 20
25.866
 21
25.94
  0
LINE
  8
0
 10
61.981
 11
62.149
 20
25.94
 21
25.985
  0
LINE
  8
0
 10
62.149
 11
62.323
 20
25.985
 21
26
  0
LINE
  8
0
 10
62.323
 11
63.5
 20
26
 21
26
  0
LINE
  8
0
 10
63.5
 11
63.5
 20
26
 21
29
  0
LINE
  8
0
 10
63.5
 11
68.5
 20
29
 21
29
  0
LINE
  8
0
 10
68.5
 11
68.5
 20
29
 21
26
  0
LINE
  8
0
 10
68.5
 11
69.677
 20
26
 21
26
  0
LINE
  8
0
 10
69.677
 11
69.851
 20
26
 21
25.985
  0
LINE
  8
0
 10
69.851
 11
70.019
 20
25.985
 21
25.94
  0
LINE
  8
0
 10
70.019
 11
70.177
 20
25.94
 21
25.866
  0
LINE
  8
0
 10
70.177
 11
70.32
 20
25.866
 21
25.766
  0
LINE
  8
0
 10
70.32
 11
70.443
 20
25.766
 21
25.643
  0
LINE
  8
0
 10
70.443
 11
70.543
 20
25.643
 21
25.5
  0
LINE
  8
0
 10
70.543
 11
70.617
 20
25.5
 21
25.342
  0
LINE
  8
0
 10
70.617
 11
70.662
 20
25.342
 21
25.174
  0
LINE
  8
0
 10
70.662
 11
70.677
 20
25.174
 21
25
  0
LINE
  8
0
 10
70.677
 11
70.677
 20
25
 21
17.646
  0
LINE
  8
0
 10
70.677
 11
70.662
 20
17.646
 21
17.472
  0
LINE
  8
0
 10
70.662
 11
70.617
 20
17.472
 21
17.304
  0
LINE
  8
0
 10
70.617
 11
70.543
 20
17.304
 21
17.146
  0
LINE
  8
0
 10
70.543
 11
70.443
 20
17.146
 21
17.003
  0
LINE
  8
0
 10
70.443
 11
70.32
 20
17.003
 21
16.88
  0
LINE
  8
0
 10
70.32
 11
70.177
 20
16.88
 21
16.78
  0
LINE
  8
0
 10
70.177
 11
70.019
 20
16.78
 21
16.706
  0
LINE
  8
0
 10
70.019
 11
69.851
 20
16.706
 21
16.661
  0
LINE
  8
0
 10
69.851
 11
69.677
 20
16.661
 21
16.646
  0
LINE
  8
0
 10
69.677
 11
62.323
 20
16.646
 21
16.646
  0
LINE
  8
0
 10
62.323
 11
62.149
 20
16.646
 21
16.661
  0
LINE
  8
0
 10
62.149
 11
61.981
 20
16.661
 21
16.706
  0
LINE
  8
0
 10
61.981
 11
61.823
 20
16.706
 21
16.78
  0
LINE
  8
0
 10
61.823
 11
61.68
 20
16.78
 21
16.88
  0
LINE
  8
0
 10
61.68
 11
61.557
 20
16.88
 21
17.003
  0
LINE
  8
0
 10
61.557
 11
61.457
 20
17.003
 21
17.146
  0
LINE
  8
0
 10
61.457
 11
61.383
 20
17.146
 21
17.304
  0
LINE
  8
0
 10
61.383
 11
61.338
 20
17.304
 21
17.472
  0
LINE
  8
0
 10
61.338
 11
61.323
 20
17.472
 21
17.646
  0
LINE
  8
0
 10
62.882
 11
64.441
 20
21.323
 21
24.023
  0
LINE
  8
0
 10
64.441
 11
67.559
 20
24.023
 21
24.023
  0
LINE
  8
0
 10
67.559
 11
69.118
 20
24.023
 21
21.323
  0
LINE
  8
0
 10
69.118
 11
67.559
 20
21.323
 21
18.623
  0
LINE
  8
0
 10
67.559
 11
64.441
 20
18.623
 21
18.623
  0
LINE
  8
0
 10
64.441
 11
62.882
 20
18.623
 21
21.323
  0
LINE
  8
0
 10
69.5
 11
69.5
 20
-58
 21
-56
  0
LINE
  8
0
 10
69.5
 11
72.5
 20
-56
 21
-56
  0
LINE
  8
0
 10
72.5
 11
72.5
 20
-56
 21
-51
  0
LINE
  8
0
 10
72.5
 11
69.5
 20
-51
 21
-51
  0
LINE
  8
0
 10
69.5
 11
69.5
 20
-51
 21
-46
  0
LINE
  8
0
 10
69.5
 11
72.5
 20
-46
 21
-46
  0
LINE
  8
0
 10
72.5
 11
72.5
 20
-46
 21
-41
  0
LINE
  8
0
 10
72.5
 11
69.5
 20
-41
 21
-41
  0
LINE
  8
0
 10
69.5
 11
69.5
 20
-41
 21
-36
  0
LINE
  8
0
 10
69.5
 11
72.5
 20
-36
 21
-36
  0
LINE
  8
0
 10
72.5
 11
72.5
 20
-36
 21
-31
  0
LINE
  8
0
 10
72.5
 11
69.5
 20
-31
 21
-31
  0
LINE
  8
0
 10
69.5
 11
69.5
 20
-31
 21
-26
  0
LINE
  8
0
 10
69.5
 11
72.5
 20
-26
 21
-26
  0
LINE
  8
0
 10
72.5
 11
72.5
 20
-26
 21
-21
  0
LINE
  8
0
 10
72.5
 11
69.5
 20
-21
 21
-21
  0
LINE
  8
0
 10
69.5
 11
69.5
 20
-21
 21
-19
  0
LINE
  8
0
 10
69.5
 11
74.5
 20
-19
 21
-19
  0
LINE
  8
0
 10
74.5
 11
74.5
 20
-19
 21
-16
  0
LINE
  8
0
 10
74.5
 11
79.5
 20
-16
 21
-16
  0
LINE
  8
0
 10
79.5
 11
79.5
 20
-16
 21
-19
  0
LINE
  8
0
 10
79.5
 11
84.5
 20
-19
 21
-19
  0
LINE
  8
0
 10
84.5
 11
84.5
 20
-19
 21
-16
  0
LINE
  8
0
 10
84.5
 11
89.5
 20
-16
 21
-16
  0
LINE
  8
0
 10
89.5
 11
89.5
 20
-16
 21
-19
  0
LINE
  8
0
 10
89.5
 11
94.5
 20
-19
 21
-19
  0
LINE
  8
0
 10
94.5
 11
94.5
 20
-19
 21
-16
  0
LINE
  8
0
 10
94.5
 11
99.5
 20
-16
 21
-16
  0
LINE
  8
0
 10
99.5
 11
99.5
 20
-16
 21
-19
  0
LINE
  8
0
 10
99.5
 11
104.5
 20
-19
 21
-19
  0
LINE
  8
0
 10
104.5
 11
104.5
 20
-19
 21
-16
  0
LINE
  8
0
 10
104.5
 11
109.5
 20
-16
 21
-16
  0
LINE
  8
0
 10
109.5
 11
109.5
 20
-16
 21
-19
  0
LINE
  8
0
 10
109.5
 11
114.5
 20
-19
 21
-19
  0
LINE
  8
0
 10
114.5
 11
114.5
 20
-19
 21
-21
  0
LINE
  8
0
 10
114.5
 11
111.5
 20
-21
 21
-21
  0
LINE
  8
0
 10
111.5
 11
111.5
 20
-21
 21
-26
  0
LINE
  8
0
 10
111.5
 11
114.5
 20
-26
 21
-26
  0
LINE
  8
0
 10
114.5
 11
114.5
 20
-26
 21
-31
  0
LINE
  8
0
 10
114.5
 11
111.5
 20
-31
 21
-31
  0
LINE
  8
0
 10
111.5
 11
111.5
 20
-31
 21
-36
  0
LINE
  8
0
 10
111.5
 11
114.5
 20
-36
 21
-36
  0
LINE
  8
0
 10
114.5
 11
114.5
 20
-36
 21
-41
  0
LINE
  8
0
 10
114.5
 11
111.5
 20
-41
 21
-41
  0
LINE
  8
0
 10
111.5
 11
111.5
 20
-41
 21
-46
  0
LINE
  8
0
 10
111.5
 11
114.5
 20
-46
 21
-46
  0
LINE
  8
0
 10
114.5
 11
114.5
 20
-46
 21
-51
  0
LINE
  8
0
 10
114.5
 11
111.5
 20
-51
 21
-51
  0
LINE
  8
0
 10
111.5
 11
111.5
 20
-51
 21
-56
  0
LINE
  8
0
 10
111.5
 11
114.5
 20
-56
 21
-56
  0
LINE
  8
0
 10
114.5
 11
114.5
 20
-56
 21
-58
  0
LINE
  8
0
 10
114.5
 11
109.5
 20
-58
 21
-58
  0
LINE
  8
0
 10
109.5
 11
109.5
 20
-58
 21
-61
  0
LINE
  8
0
 10
109.5
 11
104.5
 20
-61
 21
-61
  0
LINE
  8
0
 10
104.5
 11
104.5
 20
-61
 21
-58
  0
LINE
  8
0
 10
104.5
 11
99.5
 20
-58
 21
-58
  0
LINE
  8
0
 10
99.5
 11
99.5
 20
-58
 21
-61
  0
LINE
  8
0
 10
99.5
 11
94.5
 20
-61
 21
-61
  0
LINE
  8
0
 10
94.5
 11
94.5
 20
-61
 21
-58
  0
LINE
  8
0
 10
94.5
 11
89.5
 20
-58
 21
-58
  0
LINE
  8
0
 10
89.5
 11
89.5
 20
-58
 21
-61
  0
LINE
  8
0
 10
89.5
 11
84.5
 20
-61
 21
-61
  0
LINE
  8
0
 10
84.5
 11
84.5
 20
-61
 21
-58
  0
LINE
  8
0
 10
84.5
 11
79.5
 20
-58
 21
-58
  0
LINE
  8
0
 10
79.5
 11
79.5
 20
-58
 21
-61
  0
LINE
  8
0
 10
79.5
 11
74.5
 20
-61
 21
-61
  0
LINE
  8
0
 10
74.5
 11
74.5
 20
-61
 21
-58
  0
LINE
  8
0
 10
74.5
 11
69.5
 20
-58
 21
-58
  0
LINE
  8
0
 10
69.5
 11
69.5
 20
-15
 21
-7.5
  0
LINE
  8
0
 10
69.5
 11
72.5
 20
-7.5
 21
-7.5
  0
LINE
  8
0
 10
72.5
 11
72.5
 20
-7.5
 21
-2.5
  0
LINE
  8
0
 10
72.5
 11
69.5
 20
-2.5
 21
-2.5
  0
LINE
  8
0
 10
69.5
 11
69.5
 20
-2.5
 21
2.5
  0
LINE
  8
0
 10
69.5
 11
72.5
 20
2.5
 21
2.5
  0
LINE
  8
0
 10
72.5
 11
72.5
 20
2.5
 21
7.5
  0
LINE
  8
0
 10
72.5
 11
69.5
 20
7.5
 21
7.5
  0
LINE
  8
0
 10
69.5
 11
69.5
 20
7.5
 21
15
  0
LINE
  8
0
 10
69.5
 11
87
 20
15
 21
15
  0
LINE
  8
0
 10
87
 11
87
 20
15
 21
12
  0
LINE
  8
0
 10
87
 11
97
 20
12
 21
12
  0
LINE
  8
0
 10
97
 11
97
 20
12
 21
15
  0
LINE
  8
0
 10
97
 11
114.5
 20
15
 21
15
  0
LINE
  8
0
 10
114.5
 11
114.5
 20
15
 21
7.5
  0
LINE
  8
0
 10
114.5
 11
111.5
 20
7.5
 21
7.5
  0
LINE
  8
0
 10
111.5
 11
111.5
 20
7.5
 21
2.5
  0
LINE
  8
0
 10
111.5
 11
114.5
 20
2.5
 21
2.5
  0
LINE
  8
0
 10
114.5
 11
114.5
 20
2.5
 21
-2.5
  0
LINE
  8
0
 10
114.5
 11
111.5
 20
-2.5
 21
-2.5
  0
LINE
  8
0
 10
111.5
 11
111.5
 20
-2.5
 21
-7.5
  0
LINE
  8
0
 10
111.5
 11
114.5
 20
-7.5
 21
-7.5
  0
LINE
  8
0
 10
114.5
 11
114.5
 20
-7.5
 21
-15
  0
LINE
  8
0
 10
114.5
 11
109.5
 20
-15
 21
-15
  0
LINE
  8
0
 10
109.5
 11
109.5
 20
-15
 21
-12
  0
LINE
  8
0
 10
109.5
 11
104.5
 20
-12
 21
-12
  0
LINE
  8
0
 10
104.5
 11
104.5
 20
-12
 21
-15
  0
LINE
  8
0
 10
104.5
 11
99.5
 20
-15
 21
-15
  0
LINE
  8
0
 10
99.5
 11
99.5
 20
-15
 21
-12
  0
LINE
  8
0
 10
99.5
 11
94.5
 20
-12
 21
-12
  0
LINE
  8
0
 10
94.5
 11
94.5
 20
-12
 21
-15
  0
LINE
  8
0
 10
94.5
 11
89.5
 20
-15
 21
-15
  0
LINE
  8
0
 10
89.5
 11
89.5
 20
-15
 21
-12
  0
LINE
  8
0
 10
89.5
 11
84.5
 20
-12
 21
-12
  0
LINE
  8
0
 10
84.5
 11
84.5
 20
-12
 21
-15
  0
LINE
  8
0
 10
84.5
 11
79.5
 20
-15
 21
-15
  0
LINE
  8
0
 10
79.5
 11
79.5
 20
-15
 21
-12
  0
LINE
  8
0
 10
79.5
 11
74.5
 20
-12
 21
-12
  0
LINE
  8
0
 10
74.5
 11
74.5
 20
-12
 21
-15
  0
LINE
  8
0
 10
74.5
 11
69.5
 20
-15
 21
-15
  0
LINE
  8
0
 10
72.323
 11
72.323
 20
17.646
 21
25
  0
LINE
  8
0
 10
72.323
 11
72.338
 20
25
 21
25.174
  0
LINE
  8
0
 10
72.338
 11
72.383
 20
25.174
 21
25.342
  0
LINE
  8
0
 10
72.383
 11
72.457
 20
25.342
 21
25.5
  0
LINE
  8
0
 10
72.457
 11
72.557
 20
25.5
 21
25.643
  0
LINE
  8
0
 10
72.557
 11
72.68
 20
25.643
 21
25.766
  0
LINE
  8
0
 10
72.68
 11
72.823
 20
25.766
 21
25.866
  0
LINE
  8
0
 10
72.823
 11
72.981
 20
25.866
 21
25.94
  0
LINE
  8
0
 10
72.981
 11
73.149
 20
25.94
 21
25.985
  0
LINE
  8
0
 10
73.149
 11
73.323
 20
25.985
 21
26
  0
LINE
  8
0
 10
73.323
 11
80.677
 20
26
 21
26
  0
LINE
  8
0
 10
80.677
 11
80.851
 20
26
 21
25.985
  0
LINE
  8
0
 10
80.851
 11
81.019
 20
25.985
 21
25.94
  0
LINE
  8
0
 10
81.019
 11
81.177
 20
25.94
 21
25.866
  0
LINE
  8
0
 10
81.177
 11
81.32
 20
25.866
 21
25.766
  0
LINE
  8
0
 10
81.32
 11
81.443
 20
25.766
 21
25.643
  0
LINE
  8
0
 10
81.443
 11
81.543
 20
25.643
 21
25.5
  0
LINE
  8
0
 10
81.543
 11
81.617
 20
25.5
 21
25.342
  0
LINE
  8
0
 10
81.617
 11
81.662
 20
25.342
 21
25.174
  0
LINE
  8
0
 10
81.662
 11
81.677
 20
25.174
 21
25
  0
LINE
  8
0
 10
81.677
 11
81.677
 20
25
 21
17.646
  0
LINE
  8
0
 10
81.677
 11
81.662
 20
17.646
 21
17.472
  0
LINE
  8
0
 10
81.662
 11
81.617
 20
17.472
 21
17.304
  0
LINE
  8
0
 10
81.617
 11
81.543
 20
17.304
 21
17.146
  0
LINE
  8
0
 10
81.543
 11
81.443
 20
17.146
 21
17.003
  0
LINE
  8
0
 10
81.443
 11
81.32
 20
17.003
 21
16.88
  0
LINE
  8
0
 10
81.32
 11
81.177
 20
16.88
 21
16.78
  0
LINE
  8
0
 10
81.177
 11
81.019
 20
16.78
 21
16.706
  0
LINE
  8
0
 10
81.019
 11
80.851
 20
16.706
 21
16.661
  0
LINE
  8
0
 10
80.851
 11
80.677
 20
16.661
 21
16.646
  0
LINE
  8
0
 10
80.677
 11
73.323
 20
16.646
 21
16.646
  0
LINE
  8
0
 10
73.323
 11
73.149
 20
16.646
 21
16.661
  0
LINE
  8
0
 10
73.149
 11
72.981
 20
16.661
 21
16.706
  0
LINE
  8
0
 10
72.981
 11
72.823
 20
16.706
 21
16.78
  0
LINE
  8
0
 10
72.823
 11
72.68
 20
16.78
 21
16.88
  0
LINE
  8
0
 10
72.68
 11
72.557
 20
16.88
 21
17.003
  0
LINE
  8
0
 10
72.557
 11
72.457
 20
17.003
 21
17.146
  0
LINE
  8
0
 10
72.457
 11
72.383
 20
17.146
 21
17.304
  0
LINE
  8
0
 10
72.383
 11
72.338
 20
17.304
 21
17.472
  0
LINE
  8
0
 10
72.338
 11
72.323
 20
17.472
 21
17.646
  0
LINE
  8
0
 10
75.425
 11
75.449
 20
21.323
 21
21.596
  0
LINE
  8
0
 10
75.449
 11
75.52
 20
21.596
 21
21.862
  0
LINE
  8
0
 10
75.52
 11
75.636
 20
21.862
 21
22.111
  0
LINE
  8
0
 10
75.636
 11
75.793
 20
22.111
 21
22.335
  0
LINE
  8
0
 10
75.793
 11
75.988
 20
22.335
 21
22.53
  0
LINE
  8
0
 10
75.988
 11
76.212
 20
22.53
 21
22.687
  0
LINE
  8
0
 10
76.212
 11
76.461
 20
22.687
 21
22.803
  0
LINE
  8
0
 10
76.461
 11
76.727
 20
22.803
 21
22.874
  0
LINE
  8
0
 10
76.727
 11
77
 20
22.874
 21
22.898
  0
LINE
  8
0
 10
77
 11
77.273
 20
22.898
 21
22.874
  0
LINE
  8
0
 10
77.273
 11
77.539
 20
22.874
 21
22.803
  0
LINE
  8
0
 10
77.539
 11
77.788
 20
22.803
 21
22.687
  0
LINE
  8
0
 10
77.788
 11
78.012
 20
22.687
 21
22.53
  0
LINE
  8
0
 10
78.012
 11
78.207
 20
22.53
 21
22.335
  0
LINE
  8
0
 10
78.207
 11
78.364
 20
22.335
 21
22.111
  0
LINE
  8
0
 10
78.364
 11
78.48
 20
22.111
 21
21.862
  0
LINE
  8
0
 10
78.48
 11
78.551
 20
21.862
 21
21.596
  0
LINE
  8
0
 10
78.551
 11
78.575
 20
21.596
 21
21.323
  0
LINE
  8
0
 10
78.575
 11
78.551
 20
21.323
 21
21.05
  0
LINE
  8
0
 10
78.551
 11
78.48
 20
21.05
 21
20.784
  0
LINE
  8
0
 10
78.48
 11
78.364
 20
20.784
 21
20.535
  0
LINE
  8
0
 10
78.364
 11
78.207
 20
20.535
 21
20.311
  0
LINE
  8
0
 10
78.207
 11
78.012
 20
20.311
 21
20.116
  0
LINE
  8
0
 10
78.012
 11
77.788
 20
20.116
 21
19.959
  0
LINE
  8
0
 10
77.788
 11
77.539
 20
19.959
 21
19.843
  0
LINE
  8
0
 10
77.539
 11
77.273
 20
19.843
 21
19.772
  0
LINE
  8
0
 10
77.273
 11
77
 20
19.772
 21
19.748
  0
LINE
  8
0
 10
77
 11
76.727
 20
19.748
 21
19.772
  0
LINE
  8
0
 10
76.727
 11
76.461
 20
19.772
 21
19.843
  0
LINE
  8
0
 10
76.461
 11
76.212
 20
19.843
 21
19.959
  0
LINE
  8
0
 10
76.212
 11
75.988
 20
19.959
 21
20.116
  0
LINE
  8
0
 10
75.988
 11
75.793
 20
20.116
 21
20.311
  0
LINE
  8
0
 10
75.793
 11
75.636
 20
20.311
 21
20.535
  0
LINE
  8
0
 10
75.636
 11
75.52
 20
20.535
 21
20.784
  0
LINE
  8
0
 10
75.52
 11
75.449
 20
20.784
 21
21.05
  0
LINE
  8
0
 10
75.449
 11
75.425
 20
21.05
 21
21.323
  0
ENDSEC
  0
SECTION
  2
OBJECTS
  0
DICTIONARY
  0
ENDSEC
  0
EOF
