  0
SECTION
  2
BLOCKS
  0
ENDSEC
  0
SECTION
  2
ENTITIES
  0
LINE
  8
0
 10
-8.75
 11
-8.75
 20
-16.3
 21
-13
  0
LINE
  8
0
 10
-8.75
 11
-7.55
 20
-13
 21
-13
  0
LINE
  8
0
 10
-7.55
 11
-7.55
 20
-13
 21
-10
  0
LINE
  8
0
 10
-7.55
 11
-8.75
 20
-10
 21
-10
  0
LINE
  8
0
 10
-8.75
 11
-8.75
 20
-10
 21
-6.7
  0
LINE
  8
0
 10
-8.75
 11
-4.5
 20
-6.7
 21
-6.7
  0
LINE
  8
0
 10
-4.5
 11
-4.5
 20
-6.7
 21
-5.5
  0
LINE
  8
0
 10
-4.5
 11
-1.5
 20
-5.5
 21
-5.5
  0
LINE
  8
0
 10
-1.5
 11
-1.5
 20
-5.5
 21
-6.7
  0
LINE
  8
0
 10
-1.5
 11
1.5
 20
-6.7
 21
-6.7
  0
LINE
  8
0
 10
1.5
 11
1.5
 20
-6.7
 21
-5.5
  0
LINE
  8
0
 10
1.5
 11
4.5
 20
-5.5
 21
-5.5
  0
LINE
  8
0
 10
4.5
 11
4.5
 20
-5.5
 21
-6.7
  0
LINE
  8
0
 10
4.5
 11
8.75
 20
-6.7
 21
-6.7
  0
LINE
  8
0
 10
8.75
 11
8.75
 20
-6.7
 21
-10
  0
LINE
  8
0
 10
8.75
 11
7.55
 20
-10
 21
-10
  0
LINE
  8
0
 10
7.55
 11
7.55
 20
-10
 21
-13
  0
LINE
  8
0
 10
7.55
 11
8.75
 20
-13
 21
-13
  0
LINE
  8
0
 10
8.75
 11
8.75
 20
-13
 21
-16.3
  0
LINE
  8
0
 10
8.75
 11
4.5
 20
-16.3
 21
-16.3
  0
LINE
  8
0
 10
4.5
 11
4.5
 20
-16.3
 21
-17.5
  0
LINE
  8
0
 10
4.5
 11
1.5
 20
-17.5
 21
-17.5
  0
LINE
  8
0
 10
1.5
 11
1.5
 20
-17.5
 21
-16.3
  0
LINE
  8
0
 10
1.5
 11
-1.5
 20
-16.3
 21
-16.3
  0
LINE
  8
0
 10
-1.5
 11
-1.5
 20
-16.3
 21
-17.5
  0
LINE
  8
0
 10
-1.5
 11
-4.5
 20
-17.5
 21
-17.5
  0
LINE
  8
0
 10
-4.5
 11
-4.5
 20
-17.5
 21
-16.3
  0
LINE
  8
0
 10
-4.5
 11
-8.75
 20
-16.3
 21
-16.3
  0
LINE
  8
0
 10
-8.75
 11
-8.75
 20
-4.5
 21
-1
  0
LINE
  8
0
 10
-8.75
 11
-7.55
 20
-1
 21
-1
  0
LINE
  8
0
 10
-7.55
 11
-7.55
 20
-1
 21
1
  0
LINE
  8
0
 10
-7.55
 11
-8.75
 20
1
 21
1
  0
LINE
  8
0
 10
-8.75
 11
-8.75
 20
1
 21
4.5
  0
LINE
  8
0
 10
-8.75
 11
-4.5
 20
4.5
 21
4.5
  0
LINE
  8
0
 10
-4.5
 11
-4.5
 20
4.5
 21
3.3
  0
LINE
  8
0
 10
-4.5
 11
-1.5
 20
3.3
 21
3.3
  0
LINE
  8
0
 10
-1.5
 11
-1.5
 20
3.3
 21
4.5
  0
LINE
  8
0
 10
-1.5
 11
1.5
 20
4.5
 21
4.5
  0
LINE
  8
0
 10
1.5
 11
1.5
 20
4.5
 21
3.3
  0
LINE
  8
0
 10
1.5
 11
4.5
 20
3.3
 21
3.3
  0
LINE
  8
0
 10
4.5
 11
4.5
 20
3.3
 21
4.5
  0
LINE
  8
0
 10
4.5
 11
8.75
 20
4.5
 21
4.5
  0
LINE
  8
0
 10
8.75
 11
8.75
 20
4.5
 21
1
  0
LINE
  8
0
 10
8.75
 11
7.55
 20
1
 21
1
  0
LINE
  8
0
 10
7.55
 11
7.55
 20
1
 21
-1
  0
LINE
  8
0
 10
7.55
 11
8.75
 20
-1
 21
-1
  0
LINE
  8
0
 10
8.75
 11
8.75
 20
-1
 21
-4.5
  0
LINE
  8
0
 10
8.75
 11
5
 20
-4.5
 21
-4.5
  0
LINE
  8
0
 10
5
 11
5
 20
-4.5
 21
-3.3
  0
LINE
  8
0
 10
5
 11
3
 20
-3.3
 21
-3.3
  0
LINE
  8
0
 10
3
 11
3
 20
-3.3
 21
-4.5
  0
LINE
  8
0
 10
3
 11
1
 20
-4.5
 21
-4.5
  0
LINE
  8
0
 10
1
 11
1
 20
-4.5
 21
-3.3
  0
LINE
  8
0
 10
1
 11
-1
 20
-3.3
 21
-3.3
  0
LINE
  8
0
 10
-1
 11
-1
 20
-3.3
 21
-4.5
  0
LINE
  8
0
 10
-1
 11
-3
 20
-4.5
 21
-4.5
  0
LINE
  8
0
 10
-3
 11
-3
 20
-4.5
 21
-3.3
  0
LINE
  8
0
 10
-3
 11
-5
 20
-3.3
 21
-3.3
  0
LINE
  8
0
 10
-5
 11
-5
 20
-3.3
 21
-4.5
  0
LINE
  8
0
 10
-5
 11
-8.75
 20
-4.5
 21
-4.5
  0
LINE
  8
0
 10
9.75
 11
9.75
 20
-13
 21
-11
  0
LINE
  8
0
 10
9.75
 11
10.95
 20
-11
 21
-11
  0
LINE
  8
0
 10
10.95
 11
10.95
 20
-11
 21
-8.7
  0
LINE
  8
0
 10
10.95
 11
14.25
 20
-8.7
 21
-8.7
  0
LINE
  8
0
 10
14.25
 11
14.25
 20
-8.7
 21
-7.5
  0
LINE
  8
0
 10
14.25
 11
17.25
 20
-7.5
 21
-7.5
  0
LINE
  8
0
 10
17.25
 11
17.25
 20
-7.5
 21
-8.7
  0
LINE
  8
0
 10
17.25
 11
20.55
 20
-8.7
 21
-8.7
  0
LINE
  8
0
 10
20.55
 11
20.55
 20
-8.7
 21
-11
  0
LINE
  8
0
 10
20.55
 11
21.75
 20
-11
 21
-11
  0
LINE
  8
0
 10
21.75
 11
21.75
 20
-11
 21
-13
  0
LINE
  8
0
 10
21.75
 11
20.55
 20
-13
 21
-13
  0
LINE
  8
0
 10
20.55
 11
20.55
 20
-13
 21
-15.3
  0
LINE
  8
0
 10
20.55
 11
18.75
 20
-15.3
 21
-15.3
  0
LINE
  8
0
 10
18.75
 11
18.75
 20
-15.3
 21
-16.5
  0
LINE
  8
0
 10
18.75
 11
16.75
 20
-16.5
 21
-16.5
  0
LINE
  8
0
 10
16.75
 11
16.75
 20
-16.5
 21
-15.3
  0
LINE
  8
0
 10
16.75
 11
14.75
 20
-15.3
 21
-15.3
  0
LINE
  8
0
 10
14.75
 11
14.75
 20
-15.3
 21
-16.5
  0
LINE
  8
0
 10
14.75
 11
12.75
 20
-16.5
 21
-16.5
  0
LINE
  8
0
 10
12.75
 11
12.75
 20
-16.5
 21
-15.3
  0
LINE
  8
0
 10
12.75
 11
10.95
 20
-15.3
 21
-15.3
  0
LINE
  8
0
 10
10.95
 11
10.95
 20
-15.3
 21
-13
  0
LINE
  8
0
 10
10.95
 11
9.75
 20
-13
 21
-13
  0
LINE
  8
0
 10
9.75
 11
9.75
 20
-1
 21
1
  0
LINE
  8
0
 10
9.75
 11
10.95
 20
1
 21
1
  0
LINE
  8
0
 10
10.95
 11
10.95
 20
1
 21
3.3
  0
LINE
  8
0
 10
10.95
 11
14.25
 20
3.3
 21
3.3
  0
LINE
  8
0
 10
14.25
 11
14.25
 20
3.3
 21
4.5
  0
LINE
  8
0
 10
14.25
 11
17.25
 20
4.5
 21
4.5
  0
LINE
  8
0
 10
17.25
 11
17.25
 20
4.5
 21
3.3
  0
LINE
  8
0
 10
17.25
 11
20.55
 20
3.3
 21
3.3
  0
LINE
  8
0
 10
20.55
 11
20.55
 20
3.3
 21
1
  0
LINE
  8
0
 10
20.55
 11
21.75
 20
1
 21
1
  0
LINE
  8
0
 10
21.75
 11
21.75
 20
1
 21
-1
  0
LINE
  8
0
 10
21.75
 11
20.55
 20
-1
 21
-1
  0
LINE
  8
0
 10
20.55
 11
20.55
 20
-1
 21
-3.3
  0
LINE
  8
0
 10
20.55
 11
18.75
 20
-3.3
 21
-3.3
  0
LINE
  8
0
 10
18.75
 11
18.75
 20
-3.3
 21
-4.5
  0
LINE
  8
0
 10
18.75
 11
16.75
 20
-4.5
 21
-4.5
  0
LINE
  8
0
 10
16.75
 11
16.75
 20
-4.5
 21
-3.3
  0
LINE
  8
0
 10
16.75
 11
14.75
 20
-3.3
 21
-3.3
  0
LINE
  8
0
 10
14.75
 11
14.75
 20
-3.3
 21
-4.5
  0
LINE
  8
0
 10
14.75
 11
12.75
 20
-4.5
 21
-4.5
  0
LINE
  8
0
 10
12.75
 11
12.75
 20
-4.5
 21
-3.3
  0
LINE
  8
0
 10
12.75
 11
10.95
 20
-3.3
 21
-3.3
  0
LINE
  8
0
 10
10.95
 11
10.95
 20
-3.3
 21
-1
  0
LINE
  8
0
 10
10.95
 11
9.75
 20
-1
 21
-1
  0
LINE
  8
0
 10
22.75
 11
22.75
 20
-16.3
 21
-14.5
  0
LINE
  8
0
 10
22.75
 11
23.95
 20
-14.5
 21
-14.5
  0
LINE
  8
0
 10
23.95
 11
23.95
 20
-14.5
 21
-12.5
  0
LINE
  8
0
 10
23.95
 11
22.75
 20
-12.5
 21
-12.5
  0
LINE
  8
0
 10
22.75
 11
22.75
 20
-12.5
 21
-10.5
  0
LINE
  8
0
 10
22.75
 11
23.95
 20
-10.5
 21
-10.5
  0
LINE
  8
0
 10
23.95
 11
23.95
 20
-10.5
 21
-8.5
  0
LINE
  8
0
 10
23.95
 11
22.75
 20
-8.5
 21
-8.5
  0
LINE
  8
0
 10
22.75
 11
22.75
 20
-8.5
 21
-6.7
  0
LINE
  8
0
 10
22.75
 11
26.5
 20
-6.7
 21
-6.7
  0
LINE
  8
0
 10
26.5
 11
26.5
 20
-6.7
 21
-5.5
  0
LINE
  8
0
 10
26.5
 11
28.5
 20
-5.5
 21
-5.5
  0
LINE
  8
0
 10
28.5
 11
28.5
 20
-5.5
 21
-6.7
  0
LINE
  8
0
 10
28.5
 11
30.5
 20
-6.7
 21
-6.7
  0
LINE
  8
0
 10
30.5
 11
30.5
 20
-6.7
 21
-5.5
  0
LINE
  8
0
 10
30.5
 11
32.5
 20
-5.5
 21
-5.5
  0
LINE
  8
0
 10
32.5
 11
32.5
 20
-5.5
 21
-6.7
  0
LINE
  8
0
 10
32.5
 11
34.5
 20
-6.7
 21
-6.7
  0
LINE
  8
0
 10
34.5
 11
34.5
 20
-6.7
 21
-5.5
  0
LINE
  8
0
 10
34.5
 11
36.5
 20
-5.5
 21
-5.5
  0
LINE
  8
0
 10
36.5
 11
36.5
 20
-5.5
 21
-6.7
  0
LINE
  8
0
 10
36.5
 11
40.25
 20
-6.7
 21
-6.7
  0
LINE
  8
0
 10
40.25
 11
40.25
 20
-6.7
 21
-8.5
  0
LINE
  8
0
 10
40.25
 11
39.05
 20
-8.5
 21
-8.5
  0
LINE
  8
0
 10
39.05
 11
39.05
 20
-8.5
 21
-10.5
  0
LINE
  8
0
 10
39.05
 11
40.25
 20
-10.5
 21
-10.5
  0
LINE
  8
0
 10
40.25
 11
40.25
 20
-10.5
 21
-12.5
  0
LINE
  8
0
 10
40.25
 11
39.05
 20
-12.5
 21
-12.5
  0
LINE
  8
0
 10
39.05
 11
39.05
 20
-12.5
 21
-14.5
  0
LINE
  8
0
 10
39.05
 11
40.25
 20
-14.5
 21
-14.5
  0
LINE
  8
0
 10
40.25
 11
40.25
 20
-14.5
 21
-16.3
  0
LINE
  8
0
 10
40.25
 11
36.5
 20
-16.3
 21
-16.3
  0
LINE
  8
0
 10
36.5
 11
36.5
 20
-16.3
 21
-17.5
  0
LINE
  8
0
 10
36.5
 11
34.5
 20
-17.5
 21
-17.5
  0
LINE
  8
0
 10
34.5
 11
34.5
 20
-17.5
 21
-16.3
  0
LINE
  8
0
 10
34.5
 11
32.5
 20
-16.3
 21
-16.3
  0
LINE
  8
0
 10
32.5
 11
32.5
 20
-16.3
 21
-17.5
  0
LINE
  8
0
 10
32.5
 11
30.5
 20
-17.5
 21
-17.5
  0
LINE
  8
0
 10
30.5
 11
30.5
 20
-17.5
 21
-16.3
  0
LINE
  8
0
 10
30.5
 11
28.5
 20
-16.3
 21
-16.3
  0
LINE
  8
0
 10
28.5
 11
28.5
 20
-16.3
 21
-17.5
  0
LINE
  8
0
 10
28.5
 11
26.5
 20
-17.5
 21
-17.5
  0
LINE
  8
0
 10
26.5
 11
26.5
 20
-17.5
 21
-16.3
  0
LINE
  8
0
 10
26.5
 11
22.75
 20
-16.3
 21
-16.3
  0
LINE
  8
0
 10
22.75
 11
22.75
 20
-4.5
 21
-1
  0
LINE
  8
0
 10
22.75
 11
23.95
 20
-1
 21
-1
  0
LINE
  8
0
 10
23.95
 11
23.95
 20
-1
 21
1
  0
LINE
  8
0
 10
23.95
 11
22.75
 20
1
 21
1
  0
LINE
  8
0
 10
22.75
 11
22.75
 20
1
 21
4.5
  0
LINE
  8
0
 10
22.75
 11
27
 20
4.5
 21
4.5
  0
LINE
  8
0
 10
27
 11
27
 20
4.5
 21
3.3
  0
LINE
  8
0
 10
27
 11
30
 20
3.3
 21
3.3
  0
LINE
  8
0
 10
30
 11
30
 20
3.3
 21
4.5
  0
LINE
  8
0
 10
30
 11
33
 20
4.5
 21
4.5
  0
LINE
  8
0
 10
33
 11
33
 20
4.5
 21
3.3
  0
LINE
  8
0
 10
33
 11
36
 20
3.3
 21
3.3
  0
LINE
  8
0
 10
36
 11
36
 20
3.3
 21
4.5
  0
LINE
  8
0
 10
36
 11
40.25
 20
4.5
 21
4.5
  0
LINE
  8
0
 10
40.25
 11
40.25
 20
4.5
 21
1
  0
LINE
  8
0
 10
40.25
 11
39.05
 20
1
 21
1
  0
LINE
  8
0
 10
39.05
 11
39.05
 20
1
 21
-1
  0
LINE
  8
0
 10
39.05
 11
40.25
 20
-1
 21
-1
  0
LINE
  8
0
 10
40.25
 11
40.25
 20
-1
 21
-4.5
  0
LINE
  8
0
 10
40.25
 11
36.5
 20
-4.5
 21
-4.5
  0
LINE
  8
0
 10
36.5
 11
36.5
 20
-4.5
 21
-3.3
  0
LINE
  8
0
 10
36.5
 11
34.5
 20
-3.3
 21
-3.3
  0
LINE
  8
0
 10
34.5
 11
34.5
 20
-3.3
 21
-4.5
  0
LINE
  8
0
 10
34.5
 11
32.5
 20
-4.5
 21
-4.5
  0
LINE
  8
0
 10
32.5
 11
32.5
 20
-4.5
 21
-3.3
  0
LINE
  8
0
 10
32.5
 11
30.5
 20
-3.3
 21
-3.3
  0
LINE
  8
0
 10
30.5
 11
30.5
 20
-3.3
 21
-4.5
  0
LINE
  8
0
 10
30.5
 11
28.5
 20
-4.5
 21
-4.5
  0
LINE
  8
0
 10
28.5
 11
28.5
 20
-4.5
 21
-3.3
  0
LINE
  8
0
 10
28.5
 11
26.5
 20
-3.3
 21
-3.3
  0
LINE
  8
0
 10
26.5
 11
26.5
 20
-3.3
 21
-4.5
  0
LINE
  8
0
 10
26.5
 11
22.75
 20
-4.5
 21
-4.5
  0
ENDSEC
  0
SECTION
  2
OBJECTS
  0
DICTIONARY
  0
ENDSEC
  0
EOF
