  0
SECTION
  2
BLOCKS
  0
ENDSEC
  0
SECTION
  2
ENTITIES
  0
LINE
  8
0
 10
-17.5
 11
-17.5
 20
-31
 21
-26
  0
LINE
  8
0
 10
-17.5
 11
-14.5
 20
-26
 21
-26
  0
LINE
  8
0
 10
-14.5
 11
-14.5
 20
-26
 21
-18
  0
LINE
  8
0
 10
-14.5
 11
-17.5
 20
-18
 21
-18
  0
LINE
  8
0
 10
-17.5
 11
-17.5
 20
-18
 21
-13
  0
LINE
  8
0
 10
-17.5
 11
-4
 20
-13
 21
-13
  0
LINE
  8
0
 10
-4
 11
-4
 20
-13
 21
-10
  0
LINE
  8
0
 10
-4
 11
4
 20
-10
 21
-10
  0
LINE
  8
0
 10
4
 11
4
 20
-10
 21
-13
  0
LINE
  8
0
 10
4
 11
17.5
 20
-13
 21
-13
  0
LINE
  8
0
 10
17.5
 11
17.5
 20
-13
 21
-18
  0
LINE
  8
0
 10
17.5
 11
14.5
 20
-18
 21
-18
  0
LINE
  8
0
 10
14.5
 11
14.5
 20
-18
 21
-26
  0
LINE
  8
0
 10
14.5
 11
17.5
 20
-26
 21
-26
  0
LINE
  8
0
 10
17.5
 11
17.5
 20
-26
 21
-31
  0
LINE
  8
0
 10
17.5
 11
4
 20
-31
 21
-31
  0
LINE
  8
0
 10
4
 11
4
 20
-31
 21
-34
  0
LINE
  8
0
 10
4
 11
-4
 20
-34
 21
-34
  0
LINE
  8
0
 10
-4
 11
-4
 20
-34
 21
-31
  0
LINE
  8
0
 10
-4
 11
-17.5
 20
-31
 21
-31
  0
LINE
  8
0
 10
-17.5
 11
-17.5
 20
-9
 21
-4.5
  0
LINE
  8
0
 10
-17.5
 11
-14.5
 20
-4.5
 21
-4.5
  0
LINE
  8
0
 10
-14.5
 11
-14.5
 20
-4.5
 21
-1.5
  0
LINE
  8
0
 10
-14.5
 11
-17.5
 20
-1.5
 21
-1.5
  0
LINE
  8
0
 10
-17.5
 11
-17.5
 20
-1.5
 21
1.5
  0
LINE
  8
0
 10
-17.5
 11
-14.5
 20
1.5
 21
1.5
  0
LINE
  8
0
 10
-14.5
 11
-14.5
 20
1.5
 21
4.5
  0
LINE
  8
0
 10
-14.5
 11
-17.5
 20
4.5
 21
4.5
  0
LINE
  8
0
 10
-17.5
 11
-17.5
 20
4.5
 21
9
  0
LINE
  8
0
 10
-17.5
 11
-4
 20
9
 21
9
  0
LINE
  8
0
 10
-4
 11
-4
 20
9
 21
6
  0
LINE
  8
0
 10
-4
 11
4
 20
6
 21
6
  0
LINE
  8
0
 10
4
 11
4
 20
6
 21
9
  0
LINE
  8
0
 10
4
 11
17.5
 20
9
 21
9
  0
LINE
  8
0
 10
17.5
 11
17.5
 20
9
 21
4.5
  0
LINE
  8
0
 10
17.5
 11
14.5
 20
4.5
 21
4.5
  0
LINE
  8
0
 10
14.5
 11
14.5
 20
4.5
 21
1.5
  0
LINE
  8
0
 10
14.5
 11
17.5
 20
1.5
 21
1.5
  0
LINE
  8
0
 10
17.5
 11
17.5
 20
1.5
 21
-1.5
  0
LINE
  8
0
 10
17.5
 11
14.5
 20
-1.5
 21
-1.5
  0
LINE
  8
0
 10
14.5
 11
14.5
 20
-1.5
 21
-4.5
  0
LINE
  8
0
 10
14.5
 11
17.5
 20
-4.5
 21
-4.5
  0
LINE
  8
0
 10
17.5
 11
17.5
 20
-4.5
 21
-9
  0
LINE
  8
0
 10
17.5
 11
13.5
 20
-9
 21
-9
  0
LINE
  8
0
 10
13.5
 11
13.5
 20
-9
 21
-6
  0
LINE
  8
0
 10
13.5
 11
10.5
 20
-6
 21
-6
  0
LINE
  8
0
 10
10.5
 11
10.5
 20
-6
 21
-9
  0
LINE
  8
0
 10
10.5
 11
7.5
 20
-9
 21
-9
  0
LINE
  8
0
 10
7.5
 11
7.5
 20
-9
 21
-6
  0
LINE
  8
0
 10
7.5
 11
4.5
 20
-6
 21
-6
  0
LINE
  8
0
 10
4.5
 11
4.5
 20
-6
 21
-9
  0
LINE
  8
0
 10
4.5
 11
1.5
 20
-9
 21
-9
  0
LINE
  8
0
 10
1.5
 11
1.5
 20
-9
 21
-6
  0
LINE
  8
0
 10
1.5
 11
-1.5
 20
-6
 21
-6
  0
LINE
  8
0
 10
-1.5
 11
-1.5
 20
-6
 21
-9
  0
LINE
  8
0
 10
-1.5
 11
-4.5
 20
-9
 21
-9
  0
LINE
  8
0
 10
-4.5
 11
-4.5
 20
-9
 21
-6
  0
LINE
  8
0
 10
-4.5
 11
-7.5
 20
-6
 21
-6
  0
LINE
  8
0
 10
-7.5
 11
-7.5
 20
-6
 21
-9
  0
LINE
  8
0
 10
-7.5
 11
-10.5
 20
-9
 21
-9
  0
LINE
  8
0
 10
-10.5
 11
-10.5
 20
-9
 21
-6
  0
LINE
  8
0
 10
-10.5
 11
-13.5
 20
-6
 21
-6
  0
LINE
  8
0
 10
-13.5
 11
-13.5
 20
-6
 21
-9
  0
LINE
  8
0
 10
-13.5
 11
-17.5
 20
-9
 21
-9
  0
LINE
  8
0
 10
18.5
 11
18.5
 20
-28.5
 21
-25.5
  0
LINE
  8
0
 10
18.5
 11
21.5
 20
-25.5
 21
-25.5
  0
LINE
  8
0
 10
21.5
 11
21.5
 20
-25.5
 21
-22.5
  0
LINE
  8
0
 10
21.5
 11
18.5
 20
-22.5
 21
-22.5
  0
LINE
  8
0
 10
18.5
 11
18.5
 20
-22.5
 21
-19.5
  0
LINE
  8
0
 10
18.5
 11
21.5
 20
-19.5
 21
-19.5
  0
LINE
  8
0
 10
21.5
 11
21.5
 20
-19.5
 21
-18
  0
LINE
  8
0
 10
21.5
 11
26.5
 20
-18
 21
-18
  0
LINE
  8
0
 10
26.5
 11
26.5
 20
-18
 21
-15
  0
LINE
  8
0
 10
26.5
 11
34.5
 20
-15
 21
-15
  0
LINE
  8
0
 10
34.5
 11
34.5
 20
-15
 21
-18
  0
LINE
  8
0
 10
34.5
 11
39.5
 20
-18
 21
-18
  0
LINE
  8
0
 10
39.5
 11
39.5
 20
-18
 21
-19.5
  0
LINE
  8
0
 10
39.5
 11
42.5
 20
-19.5
 21
-19.5
  0
LINE
  8
0
 10
42.5
 11
42.5
 20
-19.5
 21
-22.5
  0
LINE
  8
0
 10
42.5
 11
39.5
 20
-22.5
 21
-22.5
  0
LINE
  8
0
 10
39.5
 11
39.5
 20
-22.5
 21
-25.5
  0
LINE
  8
0
 10
39.5
 11
42.5
 20
-25.5
 21
-25.5
  0
LINE
  8
0
 10
42.5
 11
42.5
 20
-25.5
 21
-28.5
  0
LINE
  8
0
 10
42.5
 11
39.5
 20
-28.5
 21
-28.5
  0
LINE
  8
0
 10
39.5
 11
39.5
 20
-28.5
 21
-30
  0
LINE
  8
0
 10
39.5
 11
38
 20
-30
 21
-30
  0
LINE
  8
0
 10
38
 11
38
 20
-30
 21
-33
  0
LINE
  8
0
 10
38
 11
35
 20
-33
 21
-33
  0
LINE
  8
0
 10
35
 11
35
 20
-33
 21
-30
  0
LINE
  8
0
 10
35
 11
32
 20
-30
 21
-30
  0
LINE
  8
0
 10
32
 11
32
 20
-30
 21
-33
  0
LINE
  8
0
 10
32
 11
29
 20
-33
 21
-33
  0
LINE
  8
0
 10
29
 11
29
 20
-33
 21
-30
  0
LINE
  8
0
 10
29
 11
26
 20
-30
 21
-30
  0
LINE
  8
0
 10
26
 11
26
 20
-30
 21
-33
  0
LINE
  8
0
 10
26
 11
23
 20
-33
 21
-33
  0
LINE
  8
0
 10
23
 11
23
 20
-33
 21
-30
  0
LINE
  8
0
 10
23
 11
21.5
 20
-30
 21
-30
  0
LINE
  8
0
 10
21.5
 11
21.5
 20
-30
 21
-28.5
  0
LINE
  8
0
 10
21.5
 11
18.5
 20
-28.5
 21
-28.5
  0
LINE
  8
0
 10
18.5
 11
18.5
 20
-4.5
 21
-1.5
  0
LINE
  8
0
 10
18.5
 11
21.5
 20
-1.5
 21
-1.5
  0
LINE
  8
0
 10
21.5
 11
21.5
 20
-1.5
 21
1.5
  0
LINE
  8
0
 10
21.5
 11
18.5
 20
1.5
 21
1.5
  0
LINE
  8
0
 10
18.5
 11
18.5
 20
1.5
 21
4.5
  0
LINE
  8
0
 10
18.5
 11
21.5
 20
4.5
 21
4.5
  0
LINE
  8
0
 10
21.5
 11
21.5
 20
4.5
 21
6
  0
LINE
  8
0
 10
21.5
 11
26.5
 20
6
 21
6
  0
LINE
  8
0
 10
26.5
 11
26.5
 20
6
 21
9
  0
LINE
  8
0
 10
26.5
 11
34.5
 20
9
 21
9
  0
LINE
  8
0
 10
34.5
 11
34.5
 20
9
 21
6
  0
LINE
  8
0
 10
34.5
 11
39.5
 20
6
 21
6
  0
LINE
  8
0
 10
39.5
 11
39.5
 20
6
 21
4.5
  0
LINE
  8
0
 10
39.5
 11
42.5
 20
4.5
 21
4.5
  0
LINE
  8
0
 10
42.5
 11
42.5
 20
4.5
 21
1.5
  0
LINE
  8
0
 10
42.5
 11
39.5
 20
1.5
 21
1.5
  0
LINE
  8
0
 10
39.5
 11
39.5
 20
1.5
 21
-1.5
  0
LINE
  8
0
 10
39.5
 11
42.5
 20
-1.5
 21
-1.5
  0
LINE
  8
0
 10
42.5
 11
42.5
 20
-1.5
 21
-4.5
  0
LINE
  8
0
 10
42.5
 11
39.5
 20
-4.5
 21
-4.5
  0
LINE
  8
0
 10
39.5
 11
39.5
 20
-4.5
 21
-6
  0
LINE
  8
0
 10
39.5
 11
38
 20
-6
 21
-6
  0
LINE
  8
0
 10
38
 11
38
 20
-6
 21
-9
  0
LINE
  8
0
 10
38
 11
35
 20
-9
 21
-9
  0
LINE
  8
0
 10
35
 11
35
 20
-9
 21
-6
  0
LINE
  8
0
 10
35
 11
32
 20
-6
 21
-6
  0
LINE
  8
0
 10
32
 11
32
 20
-6
 21
-9
  0
LINE
  8
0
 10
32
 11
29
 20
-9
 21
-9
  0
LINE
  8
0
 10
29
 11
29
 20
-9
 21
-6
  0
LINE
  8
0
 10
29
 11
26
 20
-6
 21
-6
  0
LINE
  8
0
 10
26
 11
26
 20
-6
 21
-9
  0
LINE
  8
0
 10
26
 11
23
 20
-9
 21
-9
  0
LINE
  8
0
 10
23
 11
23
 20
-9
 21
-6
  0
LINE
  8
0
 10
23
 11
21.5
 20
-6
 21
-6
  0
LINE
  8
0
 10
21.5
 11
21.5
 20
-6
 21
-4.5
  0
LINE
  8
0
 10
21.5
 11
18.5
 20
-4.5
 21
-4.5
  0
LINE
  8
0
 10
43.5
 11
43.5
 20
-31
 21
-29.5
  0
LINE
  8
0
 10
43.5
 11
46.5
 20
-29.5
 21
-29.5
  0
LINE
  8
0
 10
46.5
 11
46.5
 20
-29.5
 21
-26.5
  0
LINE
  8
0
 10
46.5
 11
43.5
 20
-26.5
 21
-26.5
  0
LINE
  8
0
 10
43.5
 11
43.5
 20
-26.5
 21
-23.5
  0
LINE
  8
0
 10
43.5
 11
46.5
 20
-23.5
 21
-23.5
  0
LINE
  8
0
 10
46.5
 11
46.5
 20
-23.5
 21
-20.5
  0
LINE
  8
0
 10
46.5
 11
43.5
 20
-20.5
 21
-20.5
  0
LINE
  8
0
 10
43.5
 11
43.5
 20
-20.5
 21
-17.5
  0
LINE
  8
0
 10
43.5
 11
46.5
 20
-17.5
 21
-17.5
  0
LINE
  8
0
 10
46.5
 11
46.5
 20
-17.5
 21
-14.5
  0
LINE
  8
0
 10
46.5
 11
43.5
 20
-14.5
 21
-14.5
  0
LINE
  8
0
 10
43.5
 11
43.5
 20
-14.5
 21
-13
  0
LINE
  8
0
 10
43.5
 11
47.5
 20
-13
 21
-13
  0
LINE
  8
0
 10
47.5
 11
47.5
 20
-13
 21
-10
  0
LINE
  8
0
 10
47.5
 11
50.5
 20
-10
 21
-10
  0
LINE
  8
0
 10
50.5
 11
50.5
 20
-10
 21
-13
  0
LINE
  8
0
 10
50.5
 11
53.5
 20
-13
 21
-13
  0
LINE
  8
0
 10
53.5
 11
53.5
 20
-13
 21
-10
  0
LINE
  8
0
 10
53.5
 11
56.5
 20
-10
 21
-10
  0
LINE
  8
0
 10
56.5
 11
56.5
 20
-10
 21
-13
  0
LINE
  8
0
 10
56.5
 11
59.5
 20
-13
 21
-13
  0
LINE
  8
0
 10
59.5
 11
59.5
 20
-13
 21
-10
  0
LINE
  8
0
 10
59.5
 11
62.5
 20
-10
 21
-10
  0
LINE
  8
0
 10
62.5
 11
62.5
 20
-10
 21
-13
  0
LINE
  8
0
 10
62.5
 11
65.5
 20
-13
 21
-13
  0
LINE
  8
0
 10
65.5
 11
65.5
 20
-13
 21
-10
  0
LINE
  8
0
 10
65.5
 11
68.5
 20
-10
 21
-10
  0
LINE
  8
0
 10
68.5
 11
68.5
 20
-10
 21
-13
  0
LINE
  8
0
 10
68.5
 11
71.5
 20
-13
 21
-13
  0
LINE
  8
0
 10
71.5
 11
71.5
 20
-13
 21
-10
  0
LINE
  8
0
 10
71.5
 11
74.5
 20
-10
 21
-10
  0
LINE
  8
0
 10
74.5
 11
74.5
 20
-10
 21
-13
  0
LINE
  8
0
 10
74.5
 11
78.5
 20
-13
 21
-13
  0
LINE
  8
0
 10
78.5
 11
78.5
 20
-13
 21
-14.5
  0
LINE
  8
0
 10
78.5
 11
75.5
 20
-14.5
 21
-14.5
  0
LINE
  8
0
 10
75.5
 11
75.5
 20
-14.5
 21
-17.5
  0
LINE
  8
0
 10
75.5
 11
78.5
 20
-17.5
 21
-17.5
  0
LINE
  8
0
 10
78.5
 11
78.5
 20
-17.5
 21
-20.5
  0
LINE
  8
0
 10
78.5
 11
75.5
 20
-20.5
 21
-20.5
  0
LINE
  8
0
 10
75.5
 11
75.5
 20
-20.5
 21
-23.5
  0
LINE
  8
0
 10
75.5
 11
78.5
 20
-23.5
 21
-23.5
  0
LINE
  8
0
 10
78.5
 11
78.5
 20
-23.5
 21
-26.5
  0
LINE
  8
0
 10
78.5
 11
75.5
 20
-26.5
 21
-26.5
  0
LINE
  8
0
 10
75.5
 11
75.5
 20
-26.5
 21
-29.5
  0
LINE
  8
0
 10
75.5
 11
78.5
 20
-29.5
 21
-29.5
  0
LINE
  8
0
 10
78.5
 11
78.5
 20
-29.5
 21
-31
  0
LINE
  8
0
 10
78.5
 11
74.5
 20
-31
 21
-31
  0
LINE
  8
0
 10
74.5
 11
74.5
 20
-31
 21
-34
  0
LINE
  8
0
 10
74.5
 11
71.5
 20
-34
 21
-34
  0
LINE
  8
0
 10
71.5
 11
71.5
 20
-34
 21
-31
  0
LINE
  8
0
 10
71.5
 11
68.5
 20
-31
 21
-31
  0
LINE
  8
0
 10
68.5
 11
68.5
 20
-31
 21
-34
  0
LINE
  8
0
 10
68.5
 11
65.5
 20
-34
 21
-34
  0
LINE
  8
0
 10
65.5
 11
65.5
 20
-34
 21
-31
  0
LINE
  8
0
 10
65.5
 11
62.5
 20
-31
 21
-31
  0
LINE
  8
0
 10
62.5
 11
62.5
 20
-31
 21
-34
  0
LINE
  8
0
 10
62.5
 11
59.5
 20
-34
 21
-34
  0
LINE
  8
0
 10
59.5
 11
59.5
 20
-34
 21
-31
  0
LINE
  8
0
 10
59.5
 11
56.5
 20
-31
 21
-31
  0
LINE
  8
0
 10
56.5
 11
56.5
 20
-31
 21
-34
  0
LINE
  8
0
 10
56.5
 11
53.5
 20
-34
 21
-34
  0
LINE
  8
0
 10
53.5
 11
53.5
 20
-34
 21
-31
  0
LINE
  8
0
 10
53.5
 11
50.5
 20
-31
 21
-31
  0
LINE
  8
0
 10
50.5
 11
50.5
 20
-31
 21
-34
  0
LINE
  8
0
 10
50.5
 11
47.5
 20
-34
 21
-34
  0
LINE
  8
0
 10
47.5
 11
47.5
 20
-34
 21
-31
  0
LINE
  8
0
 10
47.5
 11
43.5
 20
-31
 21
-31
  0
LINE
  8
0
 10
43.5
 11
43.5
 20
-9
 21
-4.5
  0
LINE
  8
0
 10
43.5
 11
46.5
 20
-4.5
 21
-4.5
  0
LINE
  8
0
 10
46.5
 11
46.5
 20
-4.5
 21
-1.5
  0
LINE
  8
0
 10
46.5
 11
43.5
 20
-1.5
 21
-1.5
  0
LINE
  8
0
 10
43.5
 11
43.5
 20
-1.5
 21
1.5
  0
LINE
  8
0
 10
43.5
 11
46.5
 20
1.5
 21
1.5
  0
LINE
  8
0
 10
46.5
 11
46.5
 20
1.5
 21
4.5
  0
LINE
  8
0
 10
46.5
 11
43.5
 20
4.5
 21
4.5
  0
LINE
  8
0
 10
43.5
 11
43.5
 20
4.5
 21
9
  0
LINE
  8
0
 10
43.5
 11
57
 20
9
 21
9
  0
LINE
  8
0
 10
57
 11
57
 20
9
 21
6
  0
LINE
  8
0
 10
57
 11
65
 20
6
 21
6
  0
LINE
  8
0
 10
65
 11
65
 20
6
 21
9
  0
LINE
  8
0
 10
65
 11
78.5
 20
9
 21
9
  0
LINE
  8
0
 10
78.5
 11
78.5
 20
9
 21
4.5
  0
LINE
  8
0
 10
78.5
 11
75.5
 20
4.5
 21
4.5
  0
LINE
  8
0
 10
75.5
 11
75.5
 20
4.5
 21
1.5
  0
LINE
  8
0
 10
75.5
 11
78.5
 20
1.5
 21
1.5
  0
LINE
  8
0
 10
78.5
 11
78.5
 20
1.5
 21
-1.5
  0
LINE
  8
0
 10
78.5
 11
75.5
 20
-1.5
 21
-1.5
  0
LINE
  8
0
 10
75.5
 11
75.5
 20
-1.5
 21
-4.5
  0
LINE
  8
0
 10
75.5
 11
78.5
 20
-4.5
 21
-4.5
  0
LINE
  8
0
 10
78.5
 11
78.5
 20
-4.5
 21
-9
  0
LINE
  8
0
 10
78.5
 11
74.5
 20
-9
 21
-9
  0
LINE
  8
0
 10
74.5
 11
74.5
 20
-9
 21
-6
  0
LINE
  8
0
 10
74.5
 11
71.5
 20
-6
 21
-6
  0
LINE
  8
0
 10
71.5
 11
71.5
 20
-6
 21
-9
  0
LINE
  8
0
 10
71.5
 11
68.5
 20
-9
 21
-9
  0
LINE
  8
0
 10
68.5
 11
68.5
 20
-9
 21
-6
  0
LINE
  8
0
 10
68.5
 11
65.5
 20
-6
 21
-6
  0
LINE
  8
0
 10
65.5
 11
65.5
 20
-6
 21
-9
  0
LINE
  8
0
 10
65.5
 11
62.5
 20
-9
 21
-9
  0
LINE
  8
0
 10
62.5
 11
62.5
 20
-9
 21
-6
  0
LINE
  8
0
 10
62.5
 11
59.5
 20
-6
 21
-6
  0
LINE
  8
0
 10
59.5
 11
59.5
 20
-6
 21
-9
  0
LINE
  8
0
 10
59.5
 11
56.5
 20
-9
 21
-9
  0
LINE
  8
0
 10
56.5
 11
56.5
 20
-9
 21
-6
  0
LINE
  8
0
 10
56.5
 11
53.5
 20
-6
 21
-6
  0
LINE
  8
0
 10
53.5
 11
53.5
 20
-6
 21
-9
  0
LINE
  8
0
 10
53.5
 11
50.5
 20
-9
 21
-9
  0
LINE
  8
0
 10
50.5
 11
50.5
 20
-9
 21
-6
  0
LINE
  8
0
 10
50.5
 11
47.5
 20
-6
 21
-6
  0
LINE
  8
0
 10
47.5
 11
47.5
 20
-6
 21
-9
  0
LINE
  8
0
 10
47.5
 11
43.5
 20
-9
 21
-9
  0
ENDSEC
  0
SECTION
  2
OBJECTS
  0
DICTIONARY
  0
ENDSEC
  0
EOF
