  0
SECTION
  2
BLOCKS
  0
ENDSEC
  0
SECTION
  2
ENTITIES
  0
LINE
  8
0
 10
-22.75
 11
-22.75
 20
-42.7
 21
-32.3
  0
LINE
  8
0
 10
-22.75
 11
-21.55
 20
-32.3
 21
-32.3
  0
LINE
  8
0
 10
-21.55
 11
-21.55
 20
-32.3
 21
-24.3
  0
LINE
  8
0
 10
-21.55
 11
-22.75
 20
-24.3
 21
-24.3
  0
LINE
  8
0
 10
-22.75
 11
-22.75
 20
-24.3
 21
-13.9
  0
LINE
  8
0
 10
-22.75
 11
-12
 20
-13.9
 21
-13.9
  0
LINE
  8
0
 10
-12
 11
-12
 20
-13.9
 21
-12.7
  0
LINE
  8
0
 10
-12
 11
-4
 20
-12.7
 21
-12.7
  0
LINE
  8
0
 10
-4
 11
-4
 20
-12.7
 21
-13.9
  0
LINE
  8
0
 10
-4
 11
4
 20
-13.9
 21
-13.9
  0
LINE
  8
0
 10
4
 11
4
 20
-13.9
 21
-12.7
  0
LINE
  8
0
 10
4
 11
12
 20
-12.7
 21
-12.7
  0
LINE
  8
0
 10
12
 11
12
 20
-12.7
 21
-13.9
  0
LINE
  8
0
 10
12
 11
22.75
 20
-13.9
 21
-13.9
  0
LINE
  8
0
 10
22.75
 11
22.75
 20
-13.9
 21
-24.3
  0
LINE
  8
0
 10
22.75
 11
21.55
 20
-24.3
 21
-24.3
  0
LINE
  8
0
 10
21.55
 11
21.55
 20
-24.3
 21
-32.3
  0
LINE
  8
0
 10
21.55
 11
22.75
 20
-32.3
 21
-32.3
  0
LINE
  8
0
 10
22.75
 11
22.75
 20
-32.3
 21
-42.7
  0
LINE
  8
0
 10
22.75
 11
12
 20
-42.7
 21
-42.7
  0
LINE
  8
0
 10
12
 11
12
 20
-42.7
 21
-43.9
  0
LINE
  8
0
 10
12
 11
4
 20
-43.9
 21
-43.9
  0
LINE
  8
0
 10
4
 11
4
 20
-43.9
 21
-42.7
  0
LINE
  8
0
 10
4
 11
-4
 20
-42.7
 21
-42.7
  0
LINE
  8
0
 10
-4
 11
-4
 20
-42.7
 21
-43.9
  0
LINE
  8
0
 10
-4
 11
-12
 20
-43.9
 21
-43.9
  0
LINE
  8
0
 10
-12
 11
-12
 20
-43.9
 21
-42.7
  0
LINE
  8
0
 10
-12
 11
-22.75
 20
-42.7
 21
-42.7
  0
LINE
  8
0
 10
-22.75
 11
-22.75
 20
-11.7
 21
-7.5
  0
LINE
  8
0
 10
-22.75
 11
-21.55
 20
-7.5
 21
-7.5
  0
LINE
  8
0
 10
-21.55
 11
-21.55
 20
-7.5
 21
-4.5
  0
LINE
  8
0
 10
-21.55
 11
-22.75
 20
-4.5
 21
-4.5
  0
LINE
  8
0
 10
-22.75
 11
-22.75
 20
-4.5
 21
-1.5
  0
LINE
  8
0
 10
-22.75
 11
-21.55
 20
-1.5
 21
-1.5
  0
LINE
  8
0
 10
-21.55
 11
-21.55
 20
-1.5
 21
1.5
  0
LINE
  8
0
 10
-21.55
 11
-22.75
 20
1.5
 21
1.5
  0
LINE
  8
0
 10
-22.75
 11
-22.75
 20
1.5
 21
4.5
  0
LINE
  8
0
 10
-22.75
 11
-21.55
 20
4.5
 21
4.5
  0
LINE
  8
0
 10
-21.55
 11
-21.55
 20
4.5
 21
7.5
  0
LINE
  8
0
 10
-21.55
 11
-22.75
 20
7.5
 21
7.5
  0
LINE
  8
0
 10
-22.75
 11
-22.75
 20
7.5
 21
11.7
  0
LINE
  8
0
 10
-22.75
 11
-12
 20
11.7
 21
11.7
  0
LINE
  8
0
 10
-12
 11
-12
 20
11.7
 21
10.5
  0
LINE
  8
0
 10
-12
 11
-4
 20
10.5
 21
10.5
  0
LINE
  8
0
 10
-4
 11
-4
 20
10.5
 21
11.7
  0
LINE
  8
0
 10
-4
 11
4
 20
11.7
 21
11.7
  0
LINE
  8
0
 10
4
 11
4
 20
11.7
 21
10.5
  0
LINE
  8
0
 10
4
 11
12
 20
10.5
 21
10.5
  0
LINE
  8
0
 10
12
 11
12
 20
10.5
 21
11.7
  0
LINE
  8
0
 10
12
 11
22.75
 20
11.7
 21
11.7
  0
LINE
  8
0
 10
22.75
 11
22.75
 20
11.7
 21
7.5
  0
LINE
  8
0
 10
22.75
 11
21.55
 20
7.5
 21
7.5
  0
LINE
  8
0
 10
21.55
 11
21.55
 20
7.5
 21
4.5
  0
LINE
  8
0
 10
21.55
 11
22.75
 20
4.5
 21
4.5
  0
LINE
  8
0
 10
22.75
 11
22.75
 20
4.5
 21
1.5
  0
LINE
  8
0
 10
22.75
 11
21.55
 20
1.5
 21
1.5
  0
LINE
  8
0
 10
21.55
 11
21.55
 20
1.5
 21
-1.5
  0
LINE
  8
0
 10
21.55
 11
22.75
 20
-1.5
 21
-1.5
  0
LINE
  8
0
 10
22.75
 11
22.75
 20
-1.5
 21
-4.5
  0
LINE
  8
0
 10
22.75
 11
21.55
 20
-4.5
 21
-4.5
  0
LINE
  8
0
 10
21.55
 11
21.55
 20
-4.5
 21
-7.5
  0
LINE
  8
0
 10
21.55
 11
22.75
 20
-7.5
 21
-7.5
  0
LINE
  8
0
 10
22.75
 11
22.75
 20
-7.5
 21
-11.7
  0
LINE
  8
0
 10
22.75
 11
19.5
 20
-11.7
 21
-11.7
  0
LINE
  8
0
 10
19.5
 11
19.5
 20
-11.7
 21
-10.5
  0
LINE
  8
0
 10
19.5
 11
16.5
 20
-10.5
 21
-10.5
  0
LINE
  8
0
 10
16.5
 11
16.5
 20
-10.5
 21
-11.7
  0
LINE
  8
0
 10
16.5
 11
13.5
 20
-11.7
 21
-11.7
  0
LINE
  8
0
 10
13.5
 11
13.5
 20
-11.7
 21
-10.5
  0
LINE
  8
0
 10
13.5
 11
10.5
 20
-10.5
 21
-10.5
  0
LINE
  8
0
 10
10.5
 11
10.5
 20
-10.5
 21
-11.7
  0
LINE
  8
0
 10
10.5
 11
7.5
 20
-11.7
 21
-11.7
  0
LINE
  8
0
 10
7.5
 11
7.5
 20
-11.7
 21
-10.5
  0
LINE
  8
0
 10
7.5
 11
4.5
 20
-10.5
 21
-10.5
  0
LINE
  8
0
 10
4.5
 11
4.5
 20
-10.5
 21
-11.7
  0
LINE
  8
0
 10
4.5
 11
1.5
 20
-11.7
 21
-11.7
  0
LINE
  8
0
 10
1.5
 11
1.5
 20
-11.7
 21
-10.5
  0
LINE
  8
0
 10
1.5
 11
-1.5
 20
-10.5
 21
-10.5
  0
LINE
  8
0
 10
-1.5
 11
-1.5
 20
-10.5
 21
-11.7
  0
LINE
  8
0
 10
-1.5
 11
-4.5
 20
-11.7
 21
-11.7
  0
LINE
  8
0
 10
-4.5
 11
-4.5
 20
-11.7
 21
-10.5
  0
LINE
  8
0
 10
-4.5
 11
-7.5
 20
-10.5
 21
-10.5
  0
LINE
  8
0
 10
-7.5
 11
-7.5
 20
-10.5
 21
-11.7
  0
LINE
  8
0
 10
-7.5
 11
-10.5
 20
-11.7
 21
-11.7
  0
LINE
  8
0
 10
-10.5
 11
-10.5
 20
-11.7
 21
-10.5
  0
LINE
  8
0
 10
-10.5
 11
-13.5
 20
-10.5
 21
-10.5
  0
LINE
  8
0
 10
-13.5
 11
-13.5
 20
-10.5
 21
-11.7
  0
LINE
  8
0
 10
-13.5
 11
-16.5
 20
-11.7
 21
-11.7
  0
LINE
  8
0
 10
-16.5
 11
-16.5
 20
-11.7
 21
-10.5
  0
LINE
  8
0
 10
-16.5
 11
-19.5
 20
-10.5
 21
-10.5
  0
LINE
  8
0
 10
-19.5
 11
-19.5
 20
-10.5
 21
-11.7
  0
LINE
  8
0
 10
-19.5
 11
-22.75
 20
-11.7
 21
-11.7
  0
LINE
  8
0
 10
23.75
 11
23.75
 20
-38.7
 21
-35.7
  0
LINE
  8
0
 10
23.75
 11
24.95
 20
-35.7
 21
-35.7
  0
LINE
  8
0
 10
24.95
 11
24.95
 20
-35.7
 21
-32.7
  0
LINE
  8
0
 10
24.95
 11
23.75
 20
-32.7
 21
-32.7
  0
LINE
  8
0
 10
23.75
 11
23.75
 20
-32.7
 21
-29.7
  0
LINE
  8
0
 10
23.75
 11
24.95
 20
-29.7
 21
-29.7
  0
LINE
  8
0
 10
24.95
 11
24.95
 20
-29.7
 21
-26.7
  0
LINE
  8
0
 10
24.95
 11
23.75
 20
-26.7
 21
-26.7
  0
LINE
  8
0
 10
23.75
 11
23.75
 20
-26.7
 21
-23.7
  0
LINE
  8
0
 10
23.75
 11
24.95
 20
-23.7
 21
-23.7
  0
LINE
  8
0
 10
24.95
 11
24.95
 20
-23.7
 21
-20.7
  0
LINE
  8
0
 10
24.95
 11
35.35
 20
-20.7
 21
-20.7
  0
LINE
  8
0
 10
35.35
 11
35.35
 20
-20.7
 21
-19.5
  0
LINE
  8
0
 10
35.35
 11
43.35
 20
-19.5
 21
-19.5
  0
LINE
  8
0
 10
43.35
 11
43.35
 20
-19.5
 21
-20.7
  0
LINE
  8
0
 10
43.35
 11
53.75
 20
-20.7
 21
-20.7
  0
LINE
  8
0
 10
53.75
 11
53.75
 20
-20.7
 21
-23.7
  0
LINE
  8
0
 10
53.75
 11
54.95
 20
-23.7
 21
-23.7
  0
LINE
  8
0
 10
54.95
 11
54.95
 20
-23.7
 21
-26.7
  0
LINE
  8
0
 10
54.95
 11
53.75
 20
-26.7
 21
-26.7
  0
LINE
  8
0
 10
53.75
 11
53.75
 20
-26.7
 21
-29.7
  0
LINE
  8
0
 10
53.75
 11
54.95
 20
-29.7
 21
-29.7
  0
LINE
  8
0
 10
54.95
 11
54.95
 20
-29.7
 21
-32.7
  0
LINE
  8
0
 10
54.95
 11
53.75
 20
-32.7
 21
-32.7
  0
LINE
  8
0
 10
53.75
 11
53.75
 20
-32.7
 21
-35.7
  0
LINE
  8
0
 10
53.75
 11
54.95
 20
-35.7
 21
-35.7
  0
LINE
  8
0
 10
54.95
 11
54.95
 20
-35.7
 21
-38.7
  0
LINE
  8
0
 10
54.95
 11
53.75
 20
-38.7
 21
-38.7
  0
LINE
  8
0
 10
53.75
 11
53.75
 20
-38.7
 21
-41.7
  0
LINE
  8
0
 10
53.75
 11
49.85
 20
-41.7
 21
-41.7
  0
LINE
  8
0
 10
49.85
 11
49.85
 20
-41.7
 21
-42.9
  0
LINE
  8
0
 10
49.85
 11
46.85
 20
-42.9
 21
-42.9
  0
LINE
  8
0
 10
46.85
 11
46.85
 20
-42.9
 21
-41.7
  0
LINE
  8
0
 10
46.85
 11
43.85
 20
-41.7
 21
-41.7
  0
LINE
  8
0
 10
43.85
 11
43.85
 20
-41.7
 21
-42.9
  0
LINE
  8
0
 10
43.85
 11
40.85
 20
-42.9
 21
-42.9
  0
LINE
  8
0
 10
40.85
 11
40.85
 20
-42.9
 21
-41.7
  0
LINE
  8
0
 10
40.85
 11
37.85
 20
-41.7
 21
-41.7
  0
LINE
  8
0
 10
37.85
 11
37.85
 20
-41.7
 21
-42.9
  0
LINE
  8
0
 10
37.85
 11
34.85
 20
-42.9
 21
-42.9
  0
LINE
  8
0
 10
34.85
 11
34.85
 20
-42.9
 21
-41.7
  0
LINE
  8
0
 10
34.85
 11
31.85
 20
-41.7
 21
-41.7
  0
LINE
  8
0
 10
31.85
 11
31.85
 20
-41.7
 21
-42.9
  0
LINE
  8
0
 10
31.85
 11
28.85
 20
-42.9
 21
-42.9
  0
LINE
  8
0
 10
28.85
 11
28.85
 20
-42.9
 21
-41.7
  0
LINE
  8
0
 10
28.85
 11
24.95
 20
-41.7
 21
-41.7
  0
LINE
  8
0
 10
24.95
 11
24.95
 20
-41.7
 21
-38.7
  0
LINE
  8
0
 10
24.95
 11
23.75
 20
-38.7
 21
-38.7
  0
LINE
  8
0
 10
23.75
 11
23.75
 20
-7.5
 21
-4.5
  0
LINE
  8
0
 10
23.75
 11
24.95
 20
-4.5
 21
-4.5
  0
LINE
  8
0
 10
24.95
 11
24.95
 20
-4.5
 21
-1.5
  0
LINE
  8
0
 10
24.95
 11
23.75
 20
-1.5
 21
-1.5
  0
LINE
  8
0
 10
23.75
 11
23.75
 20
-1.5
 21
1.5
  0
LINE
  8
0
 10
23.75
 11
24.95
 20
1.5
 21
1.5
  0
LINE
  8
0
 10
24.95
 11
24.95
 20
1.5
 21
4.5
  0
LINE
  8
0
 10
24.95
 11
23.75
 20
4.5
 21
4.5
  0
LINE
  8
0
 10
23.75
 11
23.75
 20
4.5
 21
7.5
  0
LINE
  8
0
 10
23.75
 11
24.95
 20
7.5
 21
7.5
  0
LINE
  8
0
 10
24.95
 11
24.95
 20
7.5
 21
10.5
  0
LINE
  8
0
 10
24.95
 11
35.35
 20
10.5
 21
10.5
  0
LINE
  8
0
 10
35.35
 11
35.35
 20
10.5
 21
11.7
  0
LINE
  8
0
 10
35.35
 11
43.35
 20
11.7
 21
11.7
  0
LINE
  8
0
 10
43.35
 11
43.35
 20
11.7
 21
10.5
  0
LINE
  8
0
 10
43.35
 11
53.75
 20
10.5
 21
10.5
  0
LINE
  8
0
 10
53.75
 11
53.75
 20
10.5
 21
7.5
  0
LINE
  8
0
 10
53.75
 11
54.95
 20
7.5
 21
7.5
  0
LINE
  8
0
 10
54.95
 11
54.95
 20
7.5
 21
4.5
  0
LINE
  8
0
 10
54.95
 11
53.75
 20
4.5
 21
4.5
  0
LINE
  8
0
 10
53.75
 11
53.75
 20
4.5
 21
1.5
  0
LINE
  8
0
 10
53.75
 11
54.95
 20
1.5
 21
1.5
  0
LINE
  8
0
 10
54.95
 11
54.95
 20
1.5
 21
-1.5
  0
LINE
  8
0
 10
54.95
 11
53.75
 20
-1.5
 21
-1.5
  0
LINE
  8
0
 10
53.75
 11
53.75
 20
-1.5
 21
-4.5
  0
LINE
  8
0
 10
53.75
 11
54.95
 20
-4.5
 21
-4.5
  0
LINE
  8
0
 10
54.95
 11
54.95
 20
-4.5
 21
-7.5
  0
LINE
  8
0
 10
54.95
 11
53.75
 20
-7.5
 21
-7.5
  0
LINE
  8
0
 10
53.75
 11
53.75
 20
-7.5
 21
-10.5
  0
LINE
  8
0
 10
53.75
 11
49.85
 20
-10.5
 21
-10.5
  0
LINE
  8
0
 10
49.85
 11
49.85
 20
-10.5
 21
-11.7
  0
LINE
  8
0
 10
49.85
 11
46.85
 20
-11.7
 21
-11.7
  0
LINE
  8
0
 10
46.85
 11
46.85
 20
-11.7
 21
-10.5
  0
LINE
  8
0
 10
46.85
 11
43.85
 20
-10.5
 21
-10.5
  0
LINE
  8
0
 10
43.85
 11
43.85
 20
-10.5
 21
-11.7
  0
LINE
  8
0
 10
43.85
 11
40.85
 20
-11.7
 21
-11.7
  0
LINE
  8
0
 10
40.85
 11
40.85
 20
-11.7
 21
-10.5
  0
LINE
  8
0
 10
40.85
 11
37.85
 20
-10.5
 21
-10.5
  0
LINE
  8
0
 10
37.85
 11
37.85
 20
-10.5
 21
-11.7
  0
LINE
  8
0
 10
37.85
 11
34.85
 20
-11.7
 21
-11.7
  0
LINE
  8
0
 10
34.85
 11
34.85
 20
-11.7
 21
-10.5
  0
LINE
  8
0
 10
34.85
 11
31.85
 20
-10.5
 21
-10.5
  0
LINE
  8
0
 10
31.85
 11
31.85
 20
-10.5
 21
-11.7
  0
LINE
  8
0
 10
31.85
 11
28.85
 20
-11.7
 21
-11.7
  0
LINE
  8
0
 10
28.85
 11
28.85
 20
-11.7
 21
-10.5
  0
LINE
  8
0
 10
28.85
 11
24.95
 20
-10.5
 21
-10.5
  0
LINE
  8
0
 10
24.95
 11
24.95
 20
-10.5
 21
-7.5
  0
LINE
  8
0
 10
24.95
 11
23.75
 20
-7.5
 21
-7.5
  0
LINE
  8
0
 10
55.95
 11
55.95
 20
-42.7
 21
-38.8
  0
LINE
  8
0
 10
55.95
 11
57.15
 20
-38.8
 21
-38.8
  0
LINE
  8
0
 10
57.15
 11
57.15
 20
-38.8
 21
-35.8
  0
LINE
  8
0
 10
57.15
 11
55.95
 20
-35.8
 21
-35.8
  0
LINE
  8
0
 10
55.95
 11
55.95
 20
-35.8
 21
-32.8
  0
LINE
  8
0
 10
55.95
 11
57.15
 20
-32.8
 21
-32.8
  0
LINE
  8
0
 10
57.15
 11
57.15
 20
-32.8
 21
-29.8
  0
LINE
  8
0
 10
57.15
 11
55.95
 20
-29.8
 21
-29.8
  0
LINE
  8
0
 10
55.95
 11
55.95
 20
-29.8
 21
-26.8
  0
LINE
  8
0
 10
55.95
 11
57.15
 20
-26.8
 21
-26.8
  0
LINE
  8
0
 10
57.15
 11
57.15
 20
-26.8
 21
-23.8
  0
LINE
  8
0
 10
57.15
 11
55.95
 20
-23.8
 21
-23.8
  0
LINE
  8
0
 10
55.95
 11
55.95
 20
-23.8
 21
-20.8
  0
LINE
  8
0
 10
55.95
 11
57.15
 20
-20.8
 21
-20.8
  0
LINE
  8
0
 10
57.15
 11
57.15
 20
-20.8
 21
-17.8
  0
LINE
  8
0
 10
57.15
 11
55.95
 20
-17.8
 21
-17.8
  0
LINE
  8
0
 10
55.95
 11
55.95
 20
-17.8
 21
-13.9
  0
LINE
  8
0
 10
55.95
 11
59.2
 20
-13.9
 21
-13.9
  0
LINE
  8
0
 10
59.2
 11
59.2
 20
-13.9
 21
-12.7
  0
LINE
  8
0
 10
59.2
 11
62.2
 20
-12.7
 21
-12.7
  0
LINE
  8
0
 10
62.2
 11
62.2
 20
-12.7
 21
-13.9
  0
LINE
  8
0
 10
62.2
 11
65.2
 20
-13.9
 21
-13.9
  0
LINE
  8
0
 10
65.2
 11
65.2
 20
-13.9
 21
-12.7
  0
LINE
  8
0
 10
65.2
 11
68.2
 20
-12.7
 21
-12.7
  0
LINE
  8
0
 10
68.2
 11
68.2
 20
-12.7
 21
-13.9
  0
LINE
  8
0
 10
68.2
 11
71.2
 20
-13.9
 21
-13.9
  0
LINE
  8
0
 10
71.2
 11
71.2
 20
-13.9
 21
-12.7
  0
LINE
  8
0
 10
71.2
 11
74.2
 20
-12.7
 21
-12.7
  0
LINE
  8
0
 10
74.2
 11
74.2
 20
-12.7
 21
-13.9
  0
LINE
  8
0
 10
74.2
 11
77.2
 20
-13.9
 21
-13.9
  0
LINE
  8
0
 10
77.2
 11
77.2
 20
-13.9
 21
-12.7
  0
LINE
  8
0
 10
77.2
 11
80.2
 20
-12.7
 21
-12.7
  0
LINE
  8
0
 10
80.2
 11
80.2
 20
-12.7
 21
-13.9
  0
LINE
  8
0
 10
80.2
 11
83.2
 20
-13.9
 21
-13.9
  0
LINE
  8
0
 10
83.2
 11
83.2
 20
-13.9
 21
-12.7
  0
LINE
  8
0
 10
83.2
 11
86.2
 20
-12.7
 21
-12.7
  0
LINE
  8
0
 10
86.2
 11
86.2
 20
-12.7
 21
-13.9
  0
LINE
  8
0
 10
86.2
 11
89.2
 20
-13.9
 21
-13.9
  0
LINE
  8
0
 10
89.2
 11
89.2
 20
-13.9
 21
-12.7
  0
LINE
  8
0
 10
89.2
 11
92.2
 20
-12.7
 21
-12.7
  0
LINE
  8
0
 10
92.2
 11
92.2
 20
-12.7
 21
-13.9
  0
LINE
  8
0
 10
92.2
 11
95.2
 20
-13.9
 21
-13.9
  0
LINE
  8
0
 10
95.2
 11
95.2
 20
-13.9
 21
-12.7
  0
LINE
  8
0
 10
95.2
 11
98.2
 20
-12.7
 21
-12.7
  0
LINE
  8
0
 10
98.2
 11
98.2
 20
-12.7
 21
-13.9
  0
LINE
  8
0
 10
98.2
 11
101.45
 20
-13.9
 21
-13.9
  0
LINE
  8
0
 10
101.45
 11
101.45
 20
-13.9
 21
-17.8
  0
LINE
  8
0
 10
101.45
 11
100.25
 20
-17.8
 21
-17.8
  0
LINE
  8
0
 10
100.25
 11
100.25
 20
-17.8
 21
-20.8
  0
LINE
  8
0
 10
100.25
 11
101.45
 20
-20.8
 21
-20.8
  0
LINE
  8
0
 10
101.45
 11
101.45
 20
-20.8
 21
-23.8
  0
LINE
  8
0
 10
101.45
 11
100.25
 20
-23.8
 21
-23.8
  0
LINE
  8
0
 10
100.25
 11
100.25
 20
-23.8
 21
-26.8
  0
LINE
  8
0
 10
100.25
 11
101.45
 20
-26.8
 21
-26.8
  0
LINE
  8
0
 10
101.45
 11
101.45
 20
-26.8
 21
-29.8
  0
LINE
  8
0
 10
101.45
 11
100.25
 20
-29.8
 21
-29.8
  0
LINE
  8
0
 10
100.25
 11
100.25
 20
-29.8
 21
-32.8
  0
LINE
  8
0
 10
100.25
 11
101.45
 20
-32.8
 21
-32.8
  0
LINE
  8
0
 10
101.45
 11
101.45
 20
-32.8
 21
-35.8
  0
LINE
  8
0
 10
101.45
 11
100.25
 20
-35.8
 21
-35.8
  0
LINE
  8
0
 10
100.25
 11
100.25
 20
-35.8
 21
-38.8
  0
LINE
  8
0
 10
100.25
 11
101.45
 20
-38.8
 21
-38.8
  0
LINE
  8
0
 10
101.45
 11
101.45
 20
-38.8
 21
-42.7
  0
LINE
  8
0
 10
101.45
 11
98.2
 20
-42.7
 21
-42.7
  0
LINE
  8
0
 10
98.2
 11
98.2
 20
-42.7
 21
-43.9
  0
LINE
  8
0
 10
98.2
 11
95.2
 20
-43.9
 21
-43.9
  0
LINE
  8
0
 10
95.2
 11
95.2
 20
-43.9
 21
-42.7
  0
LINE
  8
0
 10
95.2
 11
92.2
 20
-42.7
 21
-42.7
  0
LINE
  8
0
 10
92.2
 11
92.2
 20
-42.7
 21
-43.9
  0
LINE
  8
0
 10
92.2
 11
89.2
 20
-43.9
 21
-43.9
  0
LINE
  8
0
 10
89.2
 11
89.2
 20
-43.9
 21
-42.7
  0
LINE
  8
0
 10
89.2
 11
86.2
 20
-42.7
 21
-42.7
  0
LINE
  8
0
 10
86.2
 11
86.2
 20
-42.7
 21
-43.9
  0
LINE
  8
0
 10
86.2
 11
83.2
 20
-43.9
 21
-43.9
  0
LINE
  8
0
 10
83.2
 11
83.2
 20
-43.9
 21
-42.7
  0
LINE
  8
0
 10
83.2
 11
80.2
 20
-42.7
 21
-42.7
  0
LINE
  8
0
 10
80.2
 11
80.2
 20
-42.7
 21
-43.9
  0
LINE
  8
0
 10
80.2
 11
77.2
 20
-43.9
 21
-43.9
  0
LINE
  8
0
 10
77.2
 11
77.2
 20
-43.9
 21
-42.7
  0
LINE
  8
0
 10
77.2
 11
74.2
 20
-42.7
 21
-42.7
  0
LINE
  8
0
 10
74.2
 11
74.2
 20
-42.7
 21
-43.9
  0
LINE
  8
0
 10
74.2
 11
71.2
 20
-43.9
 21
-43.9
  0
LINE
  8
0
 10
71.2
 11
71.2
 20
-43.9
 21
-42.7
  0
LINE
  8
0
 10
71.2
 11
68.2
 20
-42.7
 21
-42.7
  0
LINE
  8
0
 10
68.2
 11
68.2
 20
-42.7
 21
-43.9
  0
LINE
  8
0
 10
68.2
 11
65.2
 20
-43.9
 21
-43.9
  0
LINE
  8
0
 10
65.2
 11
65.2
 20
-43.9
 21
-42.7
  0
LINE
  8
0
 10
65.2
 11
62.2
 20
-42.7
 21
-42.7
  0
LINE
  8
0
 10
62.2
 11
62.2
 20
-42.7
 21
-43.9
  0
LINE
  8
0
 10
62.2
 11
59.2
 20
-43.9
 21
-43.9
  0
LINE
  8
0
 10
59.2
 11
59.2
 20
-43.9
 21
-42.7
  0
LINE
  8
0
 10
59.2
 11
55.95
 20
-42.7
 21
-42.7
  0
LINE
  8
0
 10
55.95
 11
55.95
 20
-11.7
 21
-7.5
  0
LINE
  8
0
 10
55.95
 11
57.15
 20
-7.5
 21
-7.5
  0
LINE
  8
0
 10
57.15
 11
57.15
 20
-7.5
 21
-4.5
  0
LINE
  8
0
 10
57.15
 11
55.95
 20
-4.5
 21
-4.5
  0
LINE
  8
0
 10
55.95
 11
55.95
 20
-4.5
 21
-1.5
  0
LINE
  8
0
 10
55.95
 11
57.15
 20
-1.5
 21
-1.5
  0
LINE
  8
0
 10
57.15
 11
57.15
 20
-1.5
 21
1.5
  0
LINE
  8
0
 10
57.15
 11
55.95
 20
1.5
 21
1.5
  0
LINE
  8
0
 10
55.95
 11
55.95
 20
1.5
 21
4.5
  0
LINE
  8
0
 10
55.95
 11
57.15
 20
4.5
 21
4.5
  0
LINE
  8
0
 10
57.15
 11
57.15
 20
4.5
 21
7.5
  0
LINE
  8
0
 10
57.15
 11
55.95
 20
7.5
 21
7.5
  0
LINE
  8
0
 10
55.95
 11
55.95
 20
7.5
 21
11.7
  0
LINE
  8
0
 10
55.95
 11
66.7
 20
11.7
 21
11.7
  0
LINE
  8
0
 10
66.7
 11
66.7
 20
11.7
 21
10.5
  0
LINE
  8
0
 10
66.7
 11
74.7
 20
10.5
 21
10.5
  0
LINE
  8
0
 10
74.7
 11
74.7
 20
10.5
 21
11.7
  0
LINE
  8
0
 10
74.7
 11
82.7
 20
11.7
 21
11.7
  0
LINE
  8
0
 10
82.7
 11
82.7
 20
11.7
 21
10.5
  0
LINE
  8
0
 10
82.7
 11
90.7
 20
10.5
 21
10.5
  0
LINE
  8
0
 10
90.7
 11
90.7
 20
10.5
 21
11.7
  0
LINE
  8
0
 10
90.7
 11
101.45
 20
11.7
 21
11.7
  0
LINE
  8
0
 10
101.45
 11
101.45
 20
11.7
 21
7.5
  0
LINE
  8
0
 10
101.45
 11
100.25
 20
7.5
 21
7.5
  0
LINE
  8
0
 10
100.25
 11
100.25
 20
7.5
 21
4.5
  0
LINE
  8
0
 10
100.25
 11
101.45
 20
4.5
 21
4.5
  0
LINE
  8
0
 10
101.45
 11
101.45
 20
4.5
 21
1.5
  0
LINE
  8
0
 10
101.45
 11
100.25
 20
1.5
 21
1.5
  0
LINE
  8
0
 10
100.25
 11
100.25
 20
1.5
 21
-1.5
  0
LINE
  8
0
 10
100.25
 11
101.45
 20
-1.5
 21
-1.5
  0
LINE
  8
0
 10
101.45
 11
101.45
 20
-1.5
 21
-4.5
  0
LINE
  8
0
 10
101.45
 11
100.25
 20
-4.5
 21
-4.5
  0
LINE
  8
0
 10
100.25
 11
100.25
 20
-4.5
 21
-7.5
  0
LINE
  8
0
 10
100.25
 11
101.45
 20
-7.5
 21
-7.5
  0
LINE
  8
0
 10
101.45
 11
101.45
 20
-7.5
 21
-11.7
  0
LINE
  8
0
 10
101.45
 11
98.2
 20
-11.7
 21
-11.7
  0
LINE
  8
0
 10
98.2
 11
98.2
 20
-11.7
 21
-10.5
  0
LINE
  8
0
 10
98.2
 11
95.2
 20
-10.5
 21
-10.5
  0
LINE
  8
0
 10
95.2
 11
95.2
 20
-10.5
 21
-11.7
  0
LINE
  8
0
 10
95.2
 11
92.2
 20
-11.7
 21
-11.7
  0
LINE
  8
0
 10
92.2
 11
92.2
 20
-11.7
 21
-10.5
  0
LINE
  8
0
 10
92.2
 11
89.2
 20
-10.5
 21
-10.5
  0
LINE
  8
0
 10
89.2
 11
89.2
 20
-10.5
 21
-11.7
  0
LINE
  8
0
 10
89.2
 11
86.2
 20
-11.7
 21
-11.7
  0
LINE
  8
0
 10
86.2
 11
86.2
 20
-11.7
 21
-10.5
  0
LINE
  8
0
 10
86.2
 11
83.2
 20
-10.5
 21
-10.5
  0
LINE
  8
0
 10
83.2
 11
83.2
 20
-10.5
 21
-11.7
  0
LINE
  8
0
 10
83.2
 11
80.2
 20
-11.7
 21
-11.7
  0
LINE
  8
0
 10
80.2
 11
80.2
 20
-11.7
 21
-10.5
  0
LINE
  8
0
 10
80.2
 11
77.2
 20
-10.5
 21
-10.5
  0
LINE
  8
0
 10
77.2
 11
77.2
 20
-10.5
 21
-11.7
  0
LINE
  8
0
 10
77.2
 11
74.2
 20
-11.7
 21
-11.7
  0
LINE
  8
0
 10
74.2
 11
74.2
 20
-11.7
 21
-10.5
  0
LINE
  8
0
 10
74.2
 11
71.2
 20
-10.5
 21
-10.5
  0
LINE
  8
0
 10
71.2
 11
71.2
 20
-10.5
 21
-11.7
  0
LINE
  8
0
 10
71.2
 11
68.2
 20
-11.7
 21
-11.7
  0
LINE
  8
0
 10
68.2
 11
68.2
 20
-11.7
 21
-10.5
  0
LINE
  8
0
 10
68.2
 11
65.2
 20
-10.5
 21
-10.5
  0
LINE
  8
0
 10
65.2
 11
65.2
 20
-10.5
 21
-11.7
  0
LINE
  8
0
 10
65.2
 11
62.2
 20
-11.7
 21
-11.7
  0
LINE
  8
0
 10
62.2
 11
62.2
 20
-11.7
 21
-10.5
  0
LINE
  8
0
 10
62.2
 11
59.2
 20
-10.5
 21
-10.5
  0
LINE
  8
0
 10
59.2
 11
59.2
 20
-10.5
 21
-11.7
  0
LINE
  8
0
 10
59.2
 11
55.95
 20
-11.7
 21
-11.7
  0
ENDSEC
  0
SECTION
  2
OBJECTS
  0
DICTIONARY
  0
ENDSEC
  0
EOF
